<svg width="384" height="439" viewBox="0 0 384 439" fill="none" xmlns="http://www.w3.org/2000/svg">
<mask id="path-1-inside-1_4_64" fill="white">
<path d="M60.3294 243.84V243.854C60.3294 243.868 60.3408 243.868 60.3521 243.868L60.3294 243.84ZM32.1077 134.151C32.0624 134.511 32.0056 134.871 31.9603 135.232C32.0056 134.871 32.0623 134.511 32.119 134.151H32.1077ZM30.7028 147.446C30.6688 147.994 30.6348 148.541 30.6121 149.088C30.6348 148.541 30.6688 147.994 30.7142 147.446C30.7123 147.345 30.7161 147.244 30.7255 147.144C30.7142 147.245 30.7142 147.346 30.7028 147.446ZM60.3294 243.854C60.3294 243.868 60.3408 243.868 60.3521 243.868L60.3294 243.84V243.854ZM32.1077 134.151C32.0624 134.511 32.0056 134.871 31.9603 135.232C32.0056 134.871 32.0623 134.511 32.119 134.151H32.1077ZM30.6121 149.088C30.6348 148.541 30.6688 147.994 30.7142 147.446C30.7123 147.345 30.7161 147.244 30.7255 147.144C30.7142 147.245 30.7142 147.346 30.7028 147.446C30.6688 147.994 30.6348 148.541 30.6121 149.088ZM380.626 414.069C380.406 413.772 380.172 413.493 379.924 413.233L379.913 413.219L323.809 353.024L322.359 351.468L316.841 345.548L315.459 344.064L307.596 335.623L305.444 333.319L300.991 328.537L298.714 326.088L277.233 303.055L264.918 289.847L263.264 288.075L226.975 249.14C227.531 248.132 228.074 247.124 228.607 246.101C229.037 245.251 229.468 244.416 229.899 243.566C229.944 243.465 230 243.364 230.046 243.263C230.295 242.774 230.533 242.27 230.771 241.78C230.907 241.52 231.031 241.261 231.145 241.002C231.326 240.642 231.507 240.267 231.677 239.893C231.847 239.533 232.017 239.158 232.187 238.784C232.98 237.099 233.728 235.399 234.453 233.685L234.521 233.526L235.099 232.129C235.461 231.279 235.813 230.415 236.152 229.551C236.167 229.531 236.175 229.505 236.175 229.479C236.526 228.6 236.877 227.707 237.206 226.814C237.217 226.8 237.217 226.771 237.229 226.756C237.648 225.647 238.056 224.538 238.452 223.4C238.554 223.141 238.645 222.882 238.736 222.622C239.109 221.528 239.483 220.419 239.846 219.309C240.22 218.171 240.582 217.019 240.933 215.867C241.285 214.714 241.636 213.548 241.964 212.395C242.588 210.191 243.173 207.983 243.721 205.769C243.746 205.643 243.776 205.518 243.811 205.395C244.094 204.214 244.366 203.047 244.638 201.866C244.808 201.102 244.967 200.353 245.125 199.59C245.238 199.042 245.352 198.495 245.454 197.948C245.511 197.732 245.544 197.53 245.59 197.314C245.737 196.579 245.873 195.859 246.009 195.125C246.032 195.009 246.054 194.88 246.077 194.765C246.349 193.281 246.61 191.783 246.847 190.299C246.972 189.55 247.085 188.801 247.198 188.052C247.414 186.554 247.629 185.056 247.81 183.558C247.901 182.852 247.98 182.146 248.06 181.441C248.139 180.807 248.207 180.173 248.275 179.554C248.366 178.747 248.445 177.955 248.513 177.148C248.807 173.965 249.023 170.796 249.159 167.612C249.204 166.662 249.238 165.711 249.272 164.746C249.306 163.637 249.328 162.542 249.34 161.433C249.351 160.511 249.363 159.575 249.363 158.653C249.363 155.873 249.306 153.107 249.193 150.327C249.011 145.876 248.683 141.445 248.207 137.032C244.148 99.3141 229.548 64.713 207.076 39.5534C184.604 14.3938 155.761 0.35629 125.819 0.00669042C95.8772 -0.342909 66.8363 13.0188 44.0047 37.6494C21.1732 62.28 6.07589 96.5344 1.47255 134.151C1.35941 135.102 1.24604 136.067 1.14402 137.032C0.770324 140.489 0.490873 143.961 0.305643 147.446C0.249211 148.412 0.203844 149.362 0.169833 150.327C-0.834417 174.752 2.62526 199.14 10.2775 221.58C17.9298 244.019 29.5667 263.9 44.2756 279.663C47.0172 282.602 49.8269 285.367 52.7047 287.96C52.716 287.974 52.7273 287.974 52.7386 287.989C53.7018 288.853 54.6646 289.703 55.6391 290.538C57.1911 291.835 58.7547 293.102 60.3294 294.312C60.4541 294.398 60.5788 294.499 60.7033 294.586C62.0629 295.623 63.4339 296.617 64.8047 297.582H64.8158C69.9191 301.149 75.216 304.249 80.6661 306.858C96.6571 314.507 113.711 317.91 130.777 316.855H130.81C150.728 315.63 170.122 308.333 187.356 295.58C189.86 293.736 192.33 291.763 194.743 289.66C195.343 289.141 195.955 288.608 196.544 288.075C197.269 287.427 197.994 286.75 198.72 286.073C198.731 286.073 198.731 286.059 198.742 286.059C198.796 286.001 198.853 285.948 198.912 285.9C199.399 285.425 199.898 284.949 200.374 284.488C200.498 284.373 200.623 284.258 200.747 284.128C200.78 284.099 200.811 284.065 200.838 284.027C201.121 283.768 201.393 283.48 201.676 283.206C201.96 282.933 202.232 282.645 202.515 282.357C202.563 282.318 202.608 282.275 202.651 282.227C202.968 281.896 203.285 281.579 203.602 281.247C203.931 280.916 204.248 280.57 204.554 280.239C204.871 279.908 205.177 279.577 205.495 279.231C205.767 278.943 206.05 278.64 206.322 278.323C206.412 278.237 206.492 278.136 206.582 278.035C206.617 277.993 206.655 277.954 206.695 277.92C207.069 277.517 207.432 277.099 207.795 276.681C207.885 276.58 207.964 276.48 208.055 276.379C208.61 275.745 209.165 275.111 209.709 274.449C209.834 274.304 209.97 274.146 210.094 274.002C210.219 273.858 210.332 273.714 210.457 273.57C210.616 273.368 210.785 273.181 210.944 272.979C211.352 272.49 211.749 271.985 212.156 271.481L213.493 272.922L213.981 273.44H213.992L214.139 273.613L214.672 274.175L222.58 282.673L222.75 282.861L222.885 282.99L223.78 283.955L225.571 285.886L227.361 287.801L227.621 288.075L235.948 297.006L237.104 298.244L245.137 306.858L286.716 351.468L288.166 353.024L345.074 414.069L359.667 429.727L365.094 435.546C366.245 436.785 367.578 437.724 369.016 438.307C370.453 438.891 371.967 439.109 373.47 438.949C374.974 438.788 376.438 438.252 377.779 437.372C379.119 436.491 380.31 435.284 381.283 433.817C382.098 432.601 382.746 431.218 383.198 429.727C384.021 427.083 384.216 424.191 383.759 421.408C383.301 418.625 382.212 416.073 380.626 414.069ZM52.4441 80.1641C63.8102 63.0396 78.7548 50.3526 95.5517 43.5687C112.349 36.7849 130.312 36.181 147.368 41.8268C164.423 47.4726 179.874 59.1378 191.936 75.4748C203.998 91.8117 212.179 112.154 215.533 134.151C215.68 135.116 215.816 136.067 215.941 137.032C216.405 140.475 216.745 143.961 216.949 147.446C217.005 148.412 217.062 149.362 217.096 150.327C217.198 152.488 217.243 154.663 217.243 156.824C217.25 169.93 215.542 182.946 212.19 195.34V195.355C208.445 209.252 202.693 222.138 195.23 233.353C195.072 233.584 194.913 233.829 194.743 234.059C193.247 236.306 191.673 238.467 190.052 240.527C190.041 240.541 190.03 240.57 190.019 240.584C189.463 241.29 188.897 242.01 188.33 242.673C187.175 244.099 185.997 245.453 184.796 246.749C182.994 248.752 181.147 250.629 179.256 252.381C178.621 252.972 177.987 253.548 177.341 254.124C176.706 254.701 176.061 255.248 175.415 255.795C174.123 256.89 172.809 257.942 171.483 258.935C170.826 259.439 170.146 259.929 169.478 260.405C168.809 260.894 168.13 261.355 167.45 261.802C166.77 262.263 166.091 262.709 165.4 263.141C164.028 264.02 162.646 264.841 161.241 265.604C160.539 266.008 159.837 266.382 159.134 266.728C158.692 266.958 158.262 267.189 157.82 267.391C157.647 267.492 157.469 267.579 157.287 267.65C157.05 267.78 156.812 267.895 156.574 267.996C156.496 268.04 156.417 268.079 156.336 268.111C155.849 268.356 155.373 268.572 154.874 268.788C154.16 269.119 153.447 269.422 152.722 269.71C151.997 270.012 151.283 270.3 150.558 270.56C149.832 270.848 149.096 271.107 148.371 271.352C147.635 271.611 146.91 271.856 146.173 272.072C145.391 272.331 144.61 272.562 143.816 272.778C143.126 272.98 142.446 273.152 141.755 273.311C141.109 273.484 140.452 273.628 139.806 273.772C138.9 273.974 137.993 274.161 137.076 274.319C136.577 274.42 136.09 274.507 135.591 274.564C135.376 274.607 135.172 274.636 134.968 274.665C134.334 274.78 133.699 274.867 133.076 274.939C132.906 274.953 132.748 274.982 132.589 274.996C131.898 275.083 131.196 275.155 130.504 275.227C129.02 275.356 127.547 275.443 126.063 275.486C125.316 275.5 124.556 275.515 123.809 275.515C123.061 275.515 122.313 275.5 121.565 275.472C121.565 275.472 121.565 275.486 121.554 275.472C121.543 275.486 121.543 275.486 121.531 275.472C121.53 275.473 121.528 275.475 121.526 275.476C121.524 275.477 121.522 275.478 121.52 275.478C121.518 275.478 121.516 275.477 121.514 275.476C121.512 275.475 121.51 275.473 121.509 275.472C121.472 275.486 121.432 275.486 121.396 275.472C120.863 275.472 120.33 275.443 119.809 275.4C119.424 275.385 119.028 275.371 118.631 275.327C118.099 275.299 117.566 275.255 117.034 275.198C116.864 275.198 116.694 275.169 116.524 275.155C116.444 275.152 116.365 275.143 116.286 275.126C115.742 275.068 115.187 275.011 114.643 274.939C114.371 274.91 114.088 274.881 113.816 274.838C112.989 274.723 112.162 274.593 111.346 274.449C110.417 274.305 109.488 274.132 108.57 273.916C108.14 273.844 107.721 273.743 107.301 273.642C106.747 273.527 106.192 273.397 105.636 273.253C105.058 273.109 104.481 272.965 103.903 272.792C103.438 272.663 102.962 272.533 102.498 272.389C102.271 272.331 102.045 272.259 101.829 272.187C100.64 271.827 99.4615 271.438 98.2945 271.006C97.5582 270.747 96.8217 270.473 96.0967 270.185C95.0995 269.796 94.114 269.379 93.1285 268.932C92.7432 268.774 92.3692 268.601 91.9839 268.414C91.5989 268.255 91.2249 268.068 90.8399 267.881C90.4886 267.722 90.1373 267.549 89.7974 267.376C89.2309 267.103 88.6757 266.815 88.1206 266.527C86.9763 265.936 85.8547 265.317 84.733 264.654C84.0985 264.265 83.4643 263.891 82.8411 263.502C80.3827 261.989 77.9619 260.309 75.5787 258.46C74.9896 258.014 74.4007 257.538 73.8115 257.063C73.0749 256.487 72.3613 255.882 71.6477 255.277C71.251 254.931 70.8657 254.6 70.4804 254.254C69.7668 253.62 69.0642 252.972 68.3733 252.324C68.0107 251.993 67.648 251.647 67.297 251.301C66.0393 250.091 64.8045 248.824 63.5923 247.527C63.0145 246.908 62.4366 246.274 61.8702 245.626C61.6322 245.367 61.3941 245.093 61.1562 244.819C60.8846 244.502 60.6127 244.2 60.3521 243.868L60.3294 243.84C59.9331 243.393 59.5361 242.918 59.1509 242.443C58.5507 241.722 57.9615 240.988 57.395 240.239C56.8059 239.504 56.2394 238.741 55.6843 237.992C55.1178 237.243 54.574 236.479 54.0416 235.701C53.4977 234.938 52.9652 234.16 52.4439 233.368C51.9341 232.619 51.4357 231.841 50.9597 231.078C49.8041 229.263 48.7014 227.414 47.6515 225.532C47.1645 224.668 46.7 223.803 46.2467 222.925C45.7596 222.032 45.2949 221.124 44.8531 220.217C44.3887 219.309 43.9468 218.387 43.5163 217.451C43.5053 217.419 43.49 217.39 43.471 217.365C42.6213 215.535 41.8056 213.692 41.0463 211.819C40.2647 209.918 39.5283 207.997 38.8371 206.057C38.4861 205.092 38.1462 204.113 37.8289 203.133C37.1717 201.16 36.5599 199.187 35.9934 197.184C35.7102 196.219 35.4496 195.254 35.189 194.275C35.1807 194.21 35.1655 194.147 35.1437 194.088C34.6226 192.1 34.1469 190.098 33.7275 188.081C33.7162 188.052 33.7162 188.024 33.7048 187.995C33.4896 187.001 33.2858 186.007 33.1046 184.999C32.9232 184.12 32.7647 183.241 32.6173 182.348C32.4474 181.354 32.2776 180.36 32.1302 179.352C32.0508 178.833 31.9716 178.315 31.9036 177.796C31.8356 177.364 31.7788 176.918 31.7221 176.486C31.6657 176.054 31.609 175.607 31.5523 175.16C31.4389 174.282 31.3369 173.403 31.2464 172.525C31.133 171.487 31.0426 170.45 30.9518 169.399C30.8498 168.146 30.7593 166.892 30.6799 165.625C30.6233 164.775 30.5892 163.911 30.5555 163.046C30.5212 162.254 30.4874 161.462 30.4761 160.67C30.4647 160.628 30.4647 160.582 30.4761 160.54C30.4746 160.538 30.4733 160.536 30.4725 160.534C30.4717 160.531 30.4713 160.528 30.4713 160.526C30.4713 160.523 30.4717 160.52 30.4725 160.518C30.4733 160.515 30.4746 160.513 30.4761 160.511C30.4648 160.497 30.4648 160.497 30.4761 160.482C30.4746 160.481 30.4733 160.478 30.4725 160.476C30.4717 160.473 30.4713 160.471 30.4713 160.468C30.4713 160.465 30.4717 160.463 30.4725 160.46C30.4733 160.458 30.4746 160.456 30.4761 160.454C30.4648 160.137 30.4534 159.82 30.4534 159.503C30.4308 158.567 30.4195 157.631 30.4195 156.694C30.4195 155.844 30.4307 155.009 30.4421 154.159C30.4647 152.978 30.4987 151.797 30.5439 150.616C30.5439 150.356 30.5665 150.111 30.5782 149.852C30.5892 149.593 30.6008 149.348 30.6121 149.088C30.6348 148.541 30.6688 147.994 30.7142 147.446C30.7123 147.345 30.7161 147.244 30.7255 147.144C30.7595 146.525 30.8044 145.905 30.8498 145.286C30.9405 144.047 31.0539 142.794 31.1783 141.555C31.2464 140.936 31.3031 140.317 31.3824 139.697C31.4278 139.265 31.4842 138.819 31.5409 138.372C31.5863 137.925 31.643 137.479 31.711 137.032C31.7902 136.442 31.8698 135.837 31.9603 135.232C32.0056 134.871 32.0623 134.511 32.119 134.151C32.3342 132.711 32.5718 131.271 32.8324 129.83C33.093 128.375 33.3878 126.935 33.7048 125.495C34.0107 124.04 34.3506 122.585 34.7133 121.13C34.8831 120.395 35.0645 119.675 35.2684 118.955C35.6421 117.5 36.0387 116.06 36.4807 114.634C36.6846 113.928 36.8998 113.208 37.1376 112.502C37.591 111.076 38.0667 109.65 38.5538 108.253C38.8031 107.547 39.0525 106.841 39.3242 106.135C39.8342 104.738 40.3667 103.341 40.9445 101.972C41.4996 100.575 42.1001 99.2069 42.712 97.8529C43.3238 96.4989 43.958 95.1448 44.6266 93.8052C44.9325 93.1426 45.2722 92.4657 45.6234 91.8175C46.3033 90.4923 47.017 89.1671 47.7422 87.8707C49.204 85.2488 50.7787 82.6705 52.4441 80.1641ZM30.7028 147.446C30.6688 147.994 30.6348 148.541 30.6121 149.088C30.6348 148.541 30.6688 147.994 30.7142 147.446C30.7123 147.345 30.7161 147.244 30.7255 147.144C30.7142 147.245 30.7142 147.346 30.7028 147.446ZM32.1077 134.151C32.0624 134.511 32.0056 134.871 31.9603 135.232C32.0056 134.871 32.0623 134.511 32.119 134.151H32.1077ZM60.3294 243.84V243.854C60.3294 243.868 60.3408 243.868 60.3521 243.868L60.3294 243.84Z"/>
</mask>
<path d="M60.3294 243.84V243.854C60.3294 243.868 60.3408 243.868 60.3521 243.868L60.3294 243.84ZM32.1077 134.151C32.0624 134.511 32.0056 134.871 31.9603 135.232C32.0056 134.871 32.0623 134.511 32.119 134.151H32.1077ZM30.7028 147.446C30.6688 147.994 30.6348 148.541 30.6121 149.088C30.6348 148.541 30.6688 147.994 30.7142 147.446C30.7123 147.345 30.7161 147.244 30.7255 147.144C30.7142 147.245 30.7142 147.346 30.7028 147.446ZM60.3294 243.854C60.3294 243.868 60.3408 243.868 60.3521 243.868L60.3294 243.84V243.854ZM32.1077 134.151C32.0624 134.511 32.0056 134.871 31.9603 135.232C32.0056 134.871 32.0623 134.511 32.119 134.151H32.1077ZM30.6121 149.088C30.6348 148.541 30.6688 147.994 30.7142 147.446C30.7123 147.345 30.7161 147.244 30.7255 147.144C30.7142 147.245 30.7142 147.346 30.7028 147.446C30.6688 147.994 30.6348 148.541 30.6121 149.088ZM380.626 414.069C380.406 413.772 380.172 413.493 379.924 413.233L379.913 413.219L323.809 353.024L322.359 351.468L316.841 345.548L315.459 344.064L307.596 335.623L305.444 333.319L300.991 328.537L298.714 326.088L277.233 303.055L264.918 289.847L263.264 288.075L226.975 249.14C227.531 248.132 228.074 247.124 228.607 246.101C229.037 245.251 229.468 244.416 229.899 243.566C229.944 243.465 230 243.364 230.046 243.263C230.295 242.774 230.533 242.27 230.771 241.78C230.907 241.52 231.031 241.261 231.145 241.002C231.326 240.642 231.507 240.267 231.677 239.893C231.847 239.533 232.017 239.158 232.187 238.784C232.98 237.099 233.728 235.399 234.453 233.685L234.521 233.526L235.099 232.129C235.461 231.279 235.813 230.415 236.152 229.551C236.167 229.531 236.175 229.505 236.175 229.479C236.526 228.6 236.877 227.707 237.206 226.814C237.217 226.8 237.217 226.771 237.229 226.756C237.648 225.647 238.056 224.538 238.452 223.4C238.554 223.141 238.645 222.882 238.736 222.622C239.109 221.528 239.483 220.419 239.846 219.309C240.22 218.171 240.582 217.019 240.933 215.867C241.285 214.714 241.636 213.548 241.964 212.395C242.588 210.191 243.173 207.983 243.721 205.769C243.746 205.643 243.776 205.518 243.811 205.395C244.094 204.214 244.366 203.047 244.638 201.866C244.808 201.102 244.967 200.353 245.125 199.59C245.238 199.042 245.352 198.495 245.454 197.948C245.511 197.732 245.544 197.53 245.59 197.314C245.737 196.579 245.873 195.859 246.009 195.125C246.032 195.009 246.054 194.88 246.077 194.765C246.349 193.281 246.61 191.783 246.847 190.299C246.972 189.55 247.085 188.801 247.198 188.052C247.414 186.554 247.629 185.056 247.81 183.558C247.901 182.852 247.98 182.146 248.06 181.441C248.139 180.807 248.207 180.173 248.275 179.554C248.366 178.747 248.445 177.955 248.513 177.148C248.807 173.965 249.023 170.796 249.159 167.612C249.204 166.662 249.238 165.711 249.272 164.746C249.306 163.637 249.328 162.542 249.34 161.433C249.351 160.511 249.363 159.575 249.363 158.653C249.363 155.873 249.306 153.107 249.193 150.327C249.011 145.876 248.683 141.445 248.207 137.032C244.148 99.3141 229.548 64.713 207.076 39.5534C184.604 14.3938 155.761 0.35629 125.819 0.00669042C95.8772 -0.342909 66.8363 13.0188 44.0047 37.6494C21.1732 62.28 6.07589 96.5344 1.47255 134.151C1.35941 135.102 1.24604 136.067 1.14402 137.032C0.770324 140.489 0.490873 143.961 0.305643 147.446C0.249211 148.412 0.203844 149.362 0.169833 150.327C-0.834417 174.752 2.62526 199.14 10.2775 221.58C17.9298 244.019 29.5667 263.9 44.2756 279.663C47.0172 282.602 49.8269 285.367 52.7047 287.96C52.716 287.974 52.7273 287.974 52.7386 287.989C53.7018 288.853 54.6646 289.703 55.6391 290.538C57.1911 291.835 58.7547 293.102 60.3294 294.312C60.4541 294.398 60.5788 294.499 60.7033 294.586C62.0629 295.623 63.4339 296.617 64.8047 297.582H64.8158C69.9191 301.149 75.216 304.249 80.6661 306.858C96.6571 314.507 113.711 317.91 130.777 316.855H130.81C150.728 315.63 170.122 308.333 187.356 295.58C189.86 293.736 192.33 291.763 194.743 289.66C195.343 289.141 195.955 288.608 196.544 288.075C197.269 287.427 197.994 286.75 198.72 286.073C198.731 286.073 198.731 286.059 198.742 286.059C198.796 286.001 198.853 285.948 198.912 285.9C199.399 285.425 199.898 284.949 200.374 284.488C200.498 284.373 200.623 284.258 200.747 284.128C200.78 284.099 200.811 284.065 200.838 284.027C201.121 283.768 201.393 283.48 201.676 283.206C201.96 282.933 202.232 282.645 202.515 282.357C202.563 282.318 202.608 282.275 202.651 282.227C202.968 281.896 203.285 281.579 203.602 281.247C203.931 280.916 204.248 280.57 204.554 280.239C204.871 279.908 205.177 279.577 205.495 279.231C205.767 278.943 206.05 278.64 206.322 278.323C206.412 278.237 206.492 278.136 206.582 278.035C206.617 277.993 206.655 277.954 206.695 277.92C207.069 277.517 207.432 277.099 207.795 276.681C207.885 276.58 207.964 276.48 208.055 276.379C208.61 275.745 209.165 275.111 209.709 274.449C209.834 274.304 209.97 274.146 210.094 274.002C210.219 273.858 210.332 273.714 210.457 273.57C210.616 273.368 210.785 273.181 210.944 272.979C211.352 272.49 211.749 271.985 212.156 271.481L213.493 272.922L213.981 273.44H213.992L214.139 273.613L214.672 274.175L222.58 282.673L222.75 282.861L222.885 282.99L223.78 283.955L225.571 285.886L227.361 287.801L227.621 288.075L235.948 297.006L237.104 298.244L245.137 306.858L286.716 351.468L288.166 353.024L345.074 414.069L359.667 429.727L365.094 435.546C366.245 436.785 367.578 437.724 369.016 438.307C370.453 438.891 371.967 439.109 373.47 438.949C374.974 438.788 376.438 438.252 377.779 437.372C379.119 436.491 380.31 435.284 381.283 433.817C382.098 432.601 382.746 431.218 383.198 429.727C384.021 427.083 384.216 424.191 383.759 421.408C383.301 418.625 382.212 416.073 380.626 414.069ZM52.4441 80.1641C63.8102 63.0396 78.7548 50.3526 95.5517 43.5687C112.349 36.7849 130.312 36.181 147.368 41.8268C164.423 47.4726 179.874 59.1378 191.936 75.4748C203.998 91.8117 212.179 112.154 215.533 134.151C215.68 135.116 215.816 136.067 215.941 137.032C216.405 140.475 216.745 143.961 216.949 147.446C217.005 148.412 217.062 149.362 217.096 150.327C217.198 152.488 217.243 154.663 217.243 156.824C217.25 169.93 215.542 182.946 212.19 195.34V195.355C208.445 209.252 202.693 222.138 195.23 233.353C195.072 233.584 194.913 233.829 194.743 234.059C193.247 236.306 191.673 238.467 190.052 240.527C190.041 240.541 190.03 240.57 190.019 240.584C189.463 241.29 188.897 242.01 188.33 242.673C187.175 244.099 185.997 245.453 184.796 246.749C182.994 248.752 181.147 250.629 179.256 252.381C178.621 252.972 177.987 253.548 177.341 254.124C176.706 254.701 176.061 255.248 175.415 255.795C174.123 256.89 172.809 257.942 171.483 258.935C170.826 259.439 170.146 259.929 169.478 260.405C168.809 260.894 168.13 261.355 167.45 261.802C166.77 262.263 166.091 262.709 165.4 263.141C164.028 264.02 162.646 264.841 161.241 265.604C160.539 266.008 159.837 266.382 159.134 266.728C158.692 266.958 158.262 267.189 157.82 267.391C157.647 267.492 157.469 267.579 157.287 267.65C157.05 267.78 156.812 267.895 156.574 267.996C156.496 268.04 156.417 268.079 156.336 268.111C155.849 268.356 155.373 268.572 154.874 268.788C154.16 269.119 153.447 269.422 152.722 269.71C151.997 270.012 151.283 270.3 150.558 270.56C149.832 270.848 149.096 271.107 148.371 271.352C147.635 271.611 146.91 271.856 146.173 272.072C145.391 272.331 144.61 272.562 143.816 272.778C143.126 272.98 142.446 273.152 141.755 273.311C141.109 273.484 140.452 273.628 139.806 273.772C138.9 273.974 137.993 274.161 137.076 274.319C136.577 274.42 136.09 274.507 135.591 274.564C135.376 274.607 135.172 274.636 134.968 274.665C134.334 274.78 133.699 274.867 133.076 274.939C132.906 274.953 132.748 274.982 132.589 274.996C131.898 275.083 131.196 275.155 130.504 275.227C129.02 275.356 127.547 275.443 126.063 275.486C125.316 275.5 124.556 275.515 123.809 275.515C123.061 275.515 122.313 275.5 121.565 275.472C121.565 275.472 121.565 275.486 121.554 275.472C121.543 275.486 121.543 275.486 121.531 275.472C121.53 275.473 121.528 275.475 121.526 275.476C121.524 275.477 121.522 275.478 121.52 275.478C121.518 275.478 121.516 275.477 121.514 275.476C121.512 275.475 121.51 275.473 121.509 275.472C121.472 275.486 121.432 275.486 121.396 275.472C120.863 275.472 120.33 275.443 119.809 275.4C119.424 275.385 119.028 275.371 118.631 275.327C118.099 275.299 117.566 275.255 117.034 275.198C116.864 275.198 116.694 275.169 116.524 275.155C116.444 275.152 116.365 275.143 116.286 275.126C115.742 275.068 115.187 275.011 114.643 274.939C114.371 274.91 114.088 274.881 113.816 274.838C112.989 274.723 112.162 274.593 111.346 274.449C110.417 274.305 109.488 274.132 108.57 273.916C108.14 273.844 107.721 273.743 107.301 273.642C106.747 273.527 106.192 273.397 105.636 273.253C105.058 273.109 104.481 272.965 103.903 272.792C103.438 272.663 102.962 272.533 102.498 272.389C102.271 272.331 102.045 272.259 101.829 272.187C100.64 271.827 99.4615 271.438 98.2945 271.006C97.5582 270.747 96.8217 270.473 96.0967 270.185C95.0995 269.796 94.114 269.379 93.1285 268.932C92.7432 268.774 92.3692 268.601 91.9839 268.414C91.5989 268.255 91.2249 268.068 90.8399 267.881C90.4886 267.722 90.1373 267.549 89.7974 267.376C89.2309 267.103 88.6757 266.815 88.1206 266.527C86.9763 265.936 85.8547 265.317 84.733 264.654C84.0985 264.265 83.4643 263.891 82.8411 263.502C80.3827 261.989 77.9619 260.309 75.5787 258.46C74.9896 258.014 74.4007 257.538 73.8115 257.063C73.0749 256.487 72.3613 255.882 71.6477 255.277C71.251 254.931 70.8657 254.6 70.4804 254.254C69.7668 253.62 69.0642 252.972 68.3733 252.324C68.0107 251.993 67.648 251.647 67.297 251.301C66.0393 250.091 64.8045 248.824 63.5923 247.527C63.0145 246.908 62.4366 246.274 61.8702 245.626C61.6322 245.367 61.3941 245.093 61.1562 244.819C60.8846 244.502 60.6127 244.2 60.3521 243.868L60.3294 243.84C59.9331 243.393 59.5361 242.918 59.1509 242.443C58.5507 241.722 57.9615 240.988 57.395 240.239C56.8059 239.504 56.2394 238.741 55.6843 237.992C55.1178 237.243 54.574 236.479 54.0416 235.701C53.4977 234.938 52.9652 234.16 52.4439 233.368C51.9341 232.619 51.4357 231.841 50.9597 231.078C49.8041 229.263 48.7014 227.414 47.6515 225.532C47.1645 224.668 46.7 223.803 46.2467 222.925C45.7596 222.032 45.2949 221.124 44.8531 220.217C44.3887 219.309 43.9468 218.387 43.5163 217.451C43.5053 217.419 43.49 217.39 43.471 217.365C42.6213 215.535 41.8056 213.692 41.0463 211.819C40.2647 209.918 39.5283 207.997 38.8371 206.057C38.4861 205.092 38.1462 204.113 37.8289 203.133C37.1717 201.16 36.5599 199.187 35.9934 197.184C35.7102 196.219 35.4496 195.254 35.189 194.275C35.1807 194.21 35.1655 194.147 35.1437 194.088C34.6226 192.1 34.1469 190.098 33.7275 188.081C33.7162 188.052 33.7162 188.024 33.7048 187.995C33.4896 187.001 33.2858 186.007 33.1046 184.999C32.9232 184.12 32.7647 183.241 32.6173 182.348C32.4474 181.354 32.2776 180.36 32.1302 179.352C32.0508 178.833 31.9716 178.315 31.9036 177.796C31.8356 177.364 31.7788 176.918 31.7221 176.486C31.6657 176.054 31.609 175.607 31.5523 175.16C31.4389 174.282 31.3369 173.403 31.2464 172.525C31.133 171.487 31.0426 170.45 30.9518 169.399C30.8498 168.146 30.7593 166.892 30.6799 165.625C30.6233 164.775 30.5892 163.911 30.5555 163.046C30.5212 162.254 30.4874 161.462 30.4761 160.67C30.4647 160.628 30.4647 160.582 30.4761 160.54C30.4746 160.538 30.4733 160.536 30.4725 160.534C30.4717 160.531 30.4713 160.528 30.4713 160.526C30.4713 160.523 30.4717 160.52 30.4725 160.518C30.4733 160.515 30.4746 160.513 30.4761 160.511C30.4648 160.497 30.4648 160.497 30.4761 160.482C30.4746 160.481 30.4733 160.478 30.4725 160.476C30.4717 160.473 30.4713 160.471 30.4713 160.468C30.4713 160.465 30.4717 160.463 30.4725 160.46C30.4733 160.458 30.4746 160.456 30.4761 160.454C30.4648 160.137 30.4534 159.82 30.4534 159.503C30.4308 158.567 30.4195 157.631 30.4195 156.694C30.4195 155.844 30.4307 155.009 30.4421 154.159C30.4647 152.978 30.4987 151.797 30.5439 150.616C30.5439 150.356 30.5665 150.111 30.5782 149.852C30.5892 149.593 30.6008 149.348 30.6121 149.088C30.6348 148.541 30.6688 147.994 30.7142 147.446C30.7123 147.345 30.7161 147.244 30.7255 147.144C30.7595 146.525 30.8044 145.905 30.8498 145.286C30.9405 144.047 31.0539 142.794 31.1783 141.555C31.2464 140.936 31.3031 140.317 31.3824 139.697C31.4278 139.265 31.4842 138.819 31.5409 138.372C31.5863 137.925 31.643 137.479 31.711 137.032C31.7902 136.442 31.8698 135.837 31.9603 135.232C32.0056 134.871 32.0623 134.511 32.119 134.151C32.3342 132.711 32.5718 131.271 32.8324 129.83C33.093 128.375 33.3878 126.935 33.7048 125.495C34.0107 124.04 34.3506 122.585 34.7133 121.13C34.8831 120.395 35.0645 119.675 35.2684 118.955C35.6421 117.5 36.0387 116.06 36.4807 114.634C36.6846 113.928 36.8998 113.208 37.1376 112.502C37.591 111.076 38.0667 109.65 38.5538 108.253C38.8031 107.547 39.0525 106.841 39.3242 106.135C39.8342 104.738 40.3667 103.341 40.9445 101.972C41.4996 100.575 42.1001 99.2069 42.712 97.8529C43.3238 96.4989 43.958 95.1448 44.6266 93.8052C44.9325 93.1426 45.2722 92.4657 45.6234 91.8175C46.3033 90.4923 47.017 89.1671 47.7422 87.8707C49.204 85.2488 50.7787 82.6705 52.4441 80.1641ZM30.7028 147.446C30.6688 147.994 30.6348 148.541 30.6121 149.088C30.6348 148.541 30.6688 147.994 30.7142 147.446C30.7123 147.345 30.7161 147.244 30.7255 147.144C30.7142 147.245 30.7142 147.346 30.7028 147.446ZM32.1077 134.151C32.0624 134.511 32.0056 134.871 31.9603 135.232C32.0056 134.871 32.0623 134.511 32.119 134.151H32.1077ZM60.3294 243.84V243.854C60.3294 243.868 60.3408 243.868 60.3521 243.868L60.3294 243.84Z" fill="white"/>
<path d="M60.3294 243.84L60.7217 243.53L59.8294 242.4V243.84H60.3294ZM60.3521 243.868V244.368H61.3844L60.7444 243.558L60.3521 243.868ZM32.1077 134.151V133.651H31.6667L31.6116 134.089L32.1077 134.151ZM31.9603 135.232L31.4642 135.169L32.4563 135.294L31.9603 135.232ZM32.119 134.151L32.6129 134.229L32.7039 133.651H32.119V134.151ZM30.7028 147.446L30.206 147.39L30.2046 147.403L30.2038 147.415L30.7028 147.446ZM30.6121 149.088L30.1125 149.068L31.1117 149.109L30.6121 149.088ZM30.7142 147.446L31.2125 147.488L31.2146 147.462L31.2141 147.437L30.7142 147.446ZM30.7255 147.144L31.2233 147.191L30.2286 147.088L30.7255 147.144ZM59.8294 243.84V243.854H60.8294V243.84H59.8294ZM59.8294 243.854C59.8294 243.922 59.8428 244.022 59.905 244.123C59.9703 244.23 60.0618 244.293 60.1413 244.327C60.2126 244.357 60.2742 244.364 60.3013 244.366C60.317 244.368 60.3299 244.368 60.3377 244.368C60.345 244.368 60.3515 244.368 60.3521 244.368V243.368C60.3449 243.368 60.3639 243.368 60.3862 243.37C60.408 243.372 60.4647 243.378 60.5317 243.406C60.607 243.438 60.695 243.499 60.7578 243.601C60.8175 243.699 60.8294 243.794 60.8294 243.854H59.8294ZM60.7444 243.558L60.7217 243.53L59.9371 244.15L59.9598 244.178L60.7444 243.558ZM31.6116 134.089C31.5895 134.264 31.5645 134.441 31.5389 134.621C31.5135 134.801 31.4874 134.985 31.4642 135.169L32.4563 135.294C32.4785 135.119 32.5034 134.942 32.529 134.762C32.5545 134.582 32.5805 134.398 32.6038 134.214L31.6116 134.089ZM32.4563 135.294C32.5005 134.943 32.556 134.591 32.6129 134.229L31.6251 134.074C31.5686 134.432 31.5106 134.8 31.4642 135.169L32.4563 135.294ZM32.119 133.651H32.1077V134.651H32.119V133.651ZM30.2038 147.415C30.1699 147.962 30.1355 148.514 30.1125 149.068L31.1117 149.109C31.1341 148.568 31.1678 148.026 31.2019 147.477L30.2038 147.415ZM31.1117 149.109C31.1341 148.569 31.1676 148.028 31.2125 147.488L30.2159 147.405C30.1699 147.959 30.1355 148.514 30.1125 149.068L31.1117 149.109ZM31.2141 147.437C31.2126 147.355 31.2156 147.272 31.2233 147.191L30.2277 147.097C30.2165 147.216 30.212 147.336 30.2143 147.456L31.2141 147.437ZM30.2286 147.088C30.2212 147.155 30.2177 147.219 30.215 147.267C30.212 147.32 30.2098 147.356 30.206 147.39L31.1997 147.502C31.2072 147.436 31.2107 147.371 31.2134 147.323C31.2164 147.271 31.2185 147.234 31.2224 147.2L30.2286 147.088ZM380.626 414.069L379.823 414.665L379.832 414.677L379.842 414.69L380.626 414.069ZM379.924 413.233L379.136 413.849L379.166 413.888L379.2 413.924L379.924 413.233ZM379.913 413.219L380.701 412.603L380.674 412.569L380.644 412.537L379.913 413.219ZM323.809 353.024L324.54 352.342L324.54 352.342L323.809 353.024ZM322.359 351.468L321.627 352.15L321.627 352.15L322.359 351.468ZM316.841 345.548L316.11 346.23L316.11 346.23L316.841 345.548ZM315.459 344.064L314.727 344.746L314.727 344.746L315.459 344.064ZM307.596 335.623L308.328 334.942L308.327 334.941L307.596 335.623ZM305.444 333.319L304.712 334L304.713 334.001L305.444 333.319ZM300.991 328.537L300.259 329.218L300.259 329.218L300.991 328.537ZM298.714 326.088L299.446 325.407L299.445 325.406L298.714 326.088ZM277.233 303.055L276.502 303.737L276.502 303.737L277.233 303.055ZM264.918 289.847L265.649 289.165L265.649 289.164L264.918 289.847ZM263.264 288.075L262.532 288.757L262.533 288.757L263.264 288.075ZM226.975 249.14L226.099 248.658L225.75 249.292L226.244 249.822L226.975 249.14ZM228.607 246.101L229.494 246.563L229.499 246.553L228.607 246.101ZM229.899 243.566L230.791 244.018L230.801 243.996L230.811 243.974L229.899 243.566ZM230.046 243.263L229.154 242.81L229.143 242.831L229.134 242.853L230.046 243.263ZM230.771 241.78L229.885 241.315L229.878 241.329L229.871 241.343L230.771 241.78ZM231.145 241.002L230.252 240.552L230.239 240.577L230.228 240.602L231.145 241.002ZM231.677 239.893L230.773 239.466L230.77 239.473L230.767 239.479L231.677 239.893ZM232.187 238.784L231.282 238.358L231.279 238.364L231.276 238.371L232.187 238.784ZM234.453 233.685L233.534 233.29L233.532 233.295L234.453 233.685ZM234.521 233.526L235.44 233.92L235.445 233.908L234.521 233.526ZM235.099 232.129L234.179 231.736L234.175 231.747L235.099 232.129ZM236.152 229.551L235.345 228.96L235.269 229.064L235.221 229.185L236.152 229.551ZM236.175 229.479L235.246 229.107L235.177 229.281L235.175 229.469L236.175 229.479ZM237.206 226.814L236.42 226.196L236.322 226.32L236.268 226.469L237.206 226.814ZM237.229 226.756L238.015 227.375L238.11 227.254L238.164 227.11L237.229 226.756ZM238.452 223.4L237.521 223.035L237.514 223.053L237.508 223.071L238.452 223.4ZM238.736 222.622L239.679 222.953L239.682 222.945L238.736 222.622ZM239.846 219.309L238.896 218.997L238.895 218.999L239.846 219.309ZM240.933 215.867L239.977 215.575L239.977 215.575L240.933 215.867ZM241.964 212.395L242.926 212.67L242.927 212.667L241.964 212.395ZM243.721 205.769L244.691 206.009L244.697 205.986L244.702 205.963L243.721 205.769ZM243.811 205.395L244.772 205.672L244.778 205.65L244.784 205.628L243.811 205.395ZM244.638 201.866L245.613 202.09L245.614 202.083L244.638 201.866ZM245.125 199.59L246.104 199.793L246.105 199.792L245.125 199.59ZM245.454 197.948L244.487 197.694L244.477 197.729L244.471 197.765L245.454 197.948ZM245.59 197.314L246.568 197.52L246.57 197.511L245.59 197.314ZM246.009 195.125L245.028 194.932L245.026 194.942L246.009 195.125ZM246.077 194.765L247.058 194.958L247.061 194.945L246.077 194.765ZM246.847 190.299L245.861 190.135L245.86 190.141L246.847 190.299ZM247.198 188.052L248.187 188.201L248.188 188.194L247.198 188.052ZM247.81 183.558L246.818 183.431L246.817 183.438L247.81 183.558ZM248.06 181.441L247.067 181.317L247.066 181.329L248.06 181.441ZM248.275 179.554L247.281 179.442L247.281 179.444L248.275 179.554ZM248.513 177.148L247.517 177.056L247.516 177.064L248.513 177.148ZM249.159 167.612L248.16 167.565L248.16 167.57L249.159 167.612ZM249.272 164.746L250.271 164.781L250.271 164.777L249.272 164.746ZM249.34 161.433L248.34 161.421L248.34 161.423L249.34 161.433ZM249.193 150.327L250.192 150.287L250.192 150.287L249.193 150.327ZM248.207 137.032L247.213 137.139L247.213 137.139L248.207 137.032ZM1.47255 134.151L0.479947 134.03L0.479555 134.033L1.47255 134.151ZM1.14402 137.032L2.13823 137.14L2.13848 137.137L1.14402 137.032ZM0.305643 147.446L1.30395 147.505L1.30423 147.499L0.305643 147.446ZM0.169833 150.327L1.16901 150.368L1.16921 150.362L0.169833 150.327ZM44.2756 279.663L45.0068 278.981L45.0067 278.981L44.2756 279.663ZM52.7047 287.96L53.4907 287.342L53.4377 287.274L53.374 287.217L52.7047 287.96ZM52.7386 287.989L51.9526 288.607L52.0062 288.675L52.0707 288.733L52.7386 287.989ZM55.6391 290.538L54.9881 291.297L54.998 291.306L55.6391 290.538ZM60.3294 294.312L59.7201 295.105L59.7398 295.12L59.7603 295.134L60.3294 294.312ZM60.7033 294.586L61.3098 293.791L61.2922 293.777L61.274 293.765L60.7033 294.586ZM64.8047 297.582L64.229 298.4L64.488 298.582H64.8047V297.582ZM64.8158 297.582L65.3887 296.762L65.1306 296.582H64.8158V297.582ZM80.6661 306.858L80.2342 307.76L80.2346 307.76L80.6661 306.858ZM130.777 316.855V315.855H130.746L130.715 315.857L130.777 316.855ZM130.81 316.855V317.855H130.841L130.872 317.853L130.81 316.855ZM187.356 295.58L186.763 294.774L186.761 294.776L187.356 295.58ZM194.743 289.66L194.089 288.903L194.086 288.906L194.743 289.66ZM196.544 288.075L195.878 287.33L195.873 287.333L196.544 288.075ZM198.72 286.073V285.073H198.325L198.037 285.342L198.72 286.073ZM198.742 286.059V287.059H199.176L199.472 286.742L198.742 286.059ZM198.912 285.9L199.542 286.677L199.578 286.648L199.611 286.616L198.912 285.9ZM200.374 284.488L199.695 283.754L199.686 283.762L199.678 283.77L200.374 284.488ZM200.747 284.128L200.085 283.379L200.054 283.406L200.026 283.436L200.747 284.128ZM200.838 284.027L200.163 283.29L200.087 283.359L200.027 283.443L200.838 284.027ZM201.676 283.206L200.982 282.487L200.981 282.487L201.676 283.206ZM202.515 282.357L201.889 281.577L201.843 281.614L201.802 281.655L202.515 282.357ZM202.651 282.227L201.929 281.535L201.916 281.548L201.904 281.562L202.651 282.227ZM203.602 281.247L202.892 280.543L202.886 280.55L202.88 280.556L203.602 281.247ZM204.554 280.239L203.832 279.547L203.826 279.554L203.819 279.561L204.554 280.239ZM205.495 279.231L204.767 278.544L204.758 278.555L205.495 279.231ZM206.322 278.323L205.63 277.601L205.595 277.635L205.563 277.672L206.322 278.323ZM206.582 278.035L207.326 278.704L207.341 278.687L207.356 278.668L206.582 278.035ZM206.695 277.92L207.34 278.684L207.387 278.645L207.429 278.6L206.695 277.92ZM207.795 276.681L207.051 276.012L207.045 276.019L207.039 276.026L207.795 276.681ZM208.055 276.379L208.799 277.047L208.807 277.037L208.055 276.379ZM209.709 274.449L208.952 273.795L208.944 273.805L208.936 273.814L209.709 274.449ZM210.094 274.002L209.338 273.348L209.338 273.348L210.094 274.002ZM210.457 273.57L211.214 274.224L211.228 274.207L211.242 274.189L210.457 273.57ZM210.944 272.979L210.176 272.339L210.167 272.35L210.158 272.361L210.944 272.979ZM212.156 271.481L212.889 270.801L212.104 269.955L211.379 270.852L212.156 271.481ZM213.493 272.922L212.76 273.602L212.764 273.607L213.493 272.922ZM213.981 273.44L213.252 274.125L213.548 274.44H213.981V273.44ZM213.992 273.44L214.753 272.792L214.454 272.44H213.992V273.44ZM214.139 273.613L213.378 274.261L213.395 274.282L213.413 274.301L214.139 273.613ZM214.672 274.175L215.404 273.494L215.397 273.487L214.672 274.175ZM222.58 282.673L223.319 282.001L223.312 281.992L222.58 282.673ZM222.75 282.861L222.01 283.533L222.033 283.559L222.059 283.584L222.75 282.861ZM222.885 282.99L223.619 282.31L223.598 282.288L223.576 282.267L222.885 282.99ZM223.78 283.955L224.514 283.275L224.514 283.275L223.78 283.955ZM225.571 285.886L224.837 286.566L224.84 286.568L225.571 285.886ZM227.361 287.801L226.63 288.484L226.636 288.491L227.361 287.801ZM227.621 288.075L228.353 287.393L228.346 287.386L227.621 288.075ZM235.948 297.006L235.217 297.688L235.217 297.688L235.948 297.006ZM237.104 298.244L237.835 297.562L237.835 297.562L237.104 298.244ZM245.137 306.858L245.868 306.177L245.868 306.176L245.137 306.858ZM286.716 351.468L285.985 352.15L285.985 352.15L286.716 351.468ZM288.166 353.024L288.898 352.342L288.898 352.342L288.166 353.024ZM345.074 414.069L345.806 413.387L345.806 413.387L345.074 414.069ZM359.667 429.727L358.935 430.408L358.935 430.409L359.667 429.727ZM365.094 435.546L365.826 434.865L365.825 434.864L365.094 435.546ZM381.283 433.817L380.453 433.261L380.45 433.264L381.283 433.817ZM383.198 429.727L382.243 429.429L382.241 429.436L383.198 429.727ZM52.4441 80.1641L53.277 80.7176L53.2773 80.7171L52.4441 80.1641ZM215.533 134.151L216.521 134.001L216.521 134.001L215.533 134.151ZM215.941 137.032L214.949 137.16L214.949 137.166L215.941 137.032ZM216.949 147.446L217.947 147.388L217.947 147.388L216.949 147.446ZM217.096 150.327L216.097 150.362L216.097 150.374L217.096 150.327ZM217.243 156.824L216.243 156.824L216.243 156.824L217.243 156.824ZM212.19 195.34L211.225 195.079L211.19 195.208V195.34H212.19ZM212.19 195.355L213.156 195.615L213.19 195.487V195.355H212.19ZM195.23 233.353L196.054 233.92L196.058 233.914L196.063 233.907L195.23 233.353ZM194.743 234.059L193.938 233.466L193.924 233.485L193.91 233.505L194.743 234.059ZM190.052 240.527L189.266 239.909L189.259 239.918L190.052 240.527ZM190.019 240.584L190.805 241.203L190.811 241.195L190.019 240.584ZM188.33 242.673L187.57 242.023L187.562 242.033L187.553 242.043L188.33 242.673ZM184.796 246.749L184.062 246.07L184.057 246.075L184.052 246.081L184.796 246.749ZM179.256 252.381L178.576 251.648L178.574 251.649L179.256 252.381ZM177.341 254.124L176.675 253.378L176.668 253.384L177.341 254.124ZM175.415 255.795L174.768 255.032L174.768 255.032L175.415 255.795ZM171.483 258.935L170.883 258.135L170.875 258.142L171.483 258.935ZM169.478 260.405L168.898 259.59L168.887 259.598L169.478 260.405ZM167.45 261.802L166.901 260.966L166.895 260.97L166.889 260.974L167.45 261.802ZM165.4 263.141L164.869 262.294L164.86 262.299L165.4 263.141ZM161.241 265.604L160.764 264.726L160.754 264.731L160.743 264.737L161.241 265.604ZM159.134 266.728L158.693 265.831L158.682 265.836L158.671 265.841L159.134 266.728ZM157.82 267.391L157.405 266.481L157.358 266.502L157.313 266.528L157.82 267.391ZM157.287 267.65L156.923 266.719L156.864 266.742L156.809 266.772L157.287 267.65ZM156.574 267.996L156.183 267.075L156.127 267.099L156.074 267.129L156.574 267.996ZM156.336 268.111L155.968 267.181L155.927 267.197L155.887 267.217L156.336 268.111ZM154.874 268.788L154.477 267.871L154.465 267.876L154.453 267.881L154.874 268.788ZM152.722 269.71L152.352 268.781L152.344 268.784L152.337 268.787L152.722 269.71ZM150.558 270.56L150.221 269.618L150.205 269.624L150.188 269.63L150.558 270.56ZM148.371 271.352L148.051 270.404L148.039 270.409L148.371 271.352ZM146.173 272.072L145.892 271.112L145.875 271.117L145.858 271.123L146.173 272.072ZM143.816 272.778L143.554 271.813L143.545 271.815L143.536 271.818L143.816 272.778ZM141.755 273.311L141.531 272.336L141.514 272.34L141.496 272.345L141.755 273.311ZM139.806 273.772L140.023 274.748L140.024 274.748L139.806 273.772ZM137.076 274.319L136.906 273.334L136.891 273.336L136.877 273.339L137.076 274.319ZM135.591 274.564L135.477 273.571L135.435 273.575L135.395 273.584L135.591 274.564ZM134.968 274.665L134.828 273.675L134.809 273.678L134.79 273.681L134.968 274.665ZM133.076 274.939L133.161 275.935L133.176 275.934L133.191 275.932L133.076 274.939ZM132.589 274.996L132.499 274L132.482 274.002L132.465 274.004L132.589 274.996ZM130.504 275.227L130.591 276.223L130.6 276.222L130.608 276.221L130.504 275.227ZM126.063 275.486L126.083 276.486L126.092 276.486L126.063 275.486ZM121.565 275.472L121.604 274.472L120.566 274.432L120.565 275.471L121.565 275.472ZM121.554 275.472L122.34 274.853L121.554 273.854L120.768 274.853L121.554 275.472ZM121.531 275.472L122.317 274.853L121.515 273.833L120.733 274.869L121.531 275.472ZM121.509 275.472L122.307 274.869L121.85 274.264L121.144 274.54L121.509 275.472ZM121.396 275.472L121.76 274.54L121.584 274.472H121.396L121.396 275.472ZM119.809 275.4L119.892 274.403L119.869 274.401L119.847 274.4L119.809 275.4ZM118.631 275.327L118.739 274.333L118.712 274.33L118.685 274.329L118.631 275.327ZM117.034 275.198L117.141 274.204L117.088 274.198H117.034V275.198ZM116.524 275.155L116.609 274.158L116.581 274.156L116.554 274.155L116.524 275.155ZM116.286 275.126L116.494 274.148L116.443 274.137L116.391 274.132L116.286 275.126ZM114.643 274.939L114.774 273.947L114.761 273.945L114.748 273.944L114.643 274.939ZM113.816 274.838L113.973 273.85L113.963 273.849L113.954 273.847L113.816 274.838ZM111.346 274.449L111.52 273.464L111.51 273.462L111.5 273.461L111.346 274.449ZM108.57 273.916L108.8 272.942L108.768 272.935L108.736 272.93L108.57 273.916ZM107.301 273.642L107.535 272.67L107.52 272.666L107.505 272.663L107.301 273.642ZM105.636 273.253L105.887 272.285L105.878 272.283L105.636 273.253ZM103.903 272.792L104.189 271.834L104.18 271.832L104.171 271.829L103.903 272.792ZM102.498 272.389L102.794 271.434L102.769 271.426L102.744 271.42L102.498 272.389ZM101.829 272.187L102.147 271.239L102.133 271.235L102.119 271.23L101.829 272.187ZM98.2945 271.006L98.6418 270.068L98.6342 270.066L98.6265 270.063L98.2945 271.006ZM96.0967 270.185L96.466 269.256L96.46 269.254L96.0967 270.185ZM93.1285 268.932L93.5412 268.021L93.5251 268.014L93.5088 268.007L93.1285 268.932ZM91.9839 268.414L92.421 267.514L92.3931 267.501L92.3645 267.489L91.9839 268.414ZM90.8399 267.881L91.2772 266.981L91.2644 266.975L91.2514 266.969L90.8399 267.881ZM89.7974 267.376L90.2509 266.485L90.2417 266.48L90.2323 266.476L89.7974 267.376ZM88.1206 266.527L88.5811 265.639L88.5793 265.638L88.1206 266.527ZM84.733 264.654L84.2105 265.507L84.2174 265.511L84.2245 265.515L84.733 264.654ZM82.8411 263.502L83.3706 262.653L83.3651 262.65L82.8411 263.502ZM75.5787 258.46L76.1916 257.67L76.1828 257.663L75.5787 258.46ZM73.8115 257.063L74.4394 256.285L74.4336 256.28L74.4276 256.275L73.8115 257.063ZM71.6477 255.277L70.9906 256.031L71.0011 256.04L71.6477 255.277ZM70.4804 254.254L71.1482 253.51L71.1445 253.507L70.4804 254.254ZM68.3733 252.324L69.0575 251.595L69.0478 251.586L68.3733 252.324ZM67.297 251.301L67.9987 250.589L67.9903 250.581L67.297 251.301ZM63.5923 247.527L62.861 248.209L62.8619 248.21L63.5923 247.527ZM61.8702 245.626L62.6231 244.968L62.6152 244.959L62.6071 244.95L61.8702 245.626ZM61.1562 244.819L60.397 245.47L60.4016 245.475L61.1562 244.819ZM59.1509 242.443L59.9278 241.813L59.9191 241.802L59.1509 242.443ZM57.395 240.239L58.1926 239.636L58.184 239.624L58.1752 239.613L57.395 240.239ZM55.6843 237.992L56.4877 237.396L56.4819 237.389L55.6843 237.992ZM54.0416 235.701L54.8668 235.137L54.8614 235.129L54.856 235.121L54.0416 235.701ZM52.4439 233.368L53.2793 232.818L53.275 232.812L53.2706 232.805L52.4439 233.368ZM50.9597 231.078L51.8083 230.549L51.8032 230.541L50.9597 231.078ZM47.6515 225.532L48.5249 225.045L48.5227 225.041L47.6515 225.532ZM46.2467 222.925L47.1353 222.466L47.1301 222.456L47.1246 222.446L46.2467 222.925ZM44.8531 220.217L45.7523 219.779L45.7479 219.77L45.7433 219.761L44.8531 220.217ZM43.5163 217.451L42.5712 217.778L42.5873 217.824L42.6078 217.869L43.5163 217.451ZM43.471 217.365L42.5641 217.786L42.6081 217.881L42.6706 217.964L43.471 217.365ZM41.0463 211.819L41.9731 211.443L41.9712 211.439L41.0463 211.819ZM38.8371 206.057L39.7792 205.722L39.7769 205.716L38.8371 206.057ZM37.8289 203.133L38.7803 202.825L38.7777 202.818L37.8289 203.133ZM35.9934 197.184L36.9557 196.912L36.9529 196.903L35.9934 197.184ZM35.189 194.275L34.1971 194.401L34.2055 194.467L34.2226 194.532L35.189 194.275ZM35.1437 194.088L34.1764 194.341L34.1885 194.387L34.2049 194.432L35.1437 194.088ZM33.7275 188.081L34.7066 187.877L34.6893 187.794L34.6581 187.715L33.7275 188.081ZM33.7048 187.995L32.7275 188.206L32.7446 188.285L32.7741 188.36L33.7048 187.995ZM33.1046 184.999L34.0889 184.822L34.0866 184.809L34.084 184.796L33.1046 184.999ZM32.6173 182.348L33.6039 182.185L33.603 182.18L32.6173 182.348ZM32.1302 179.352L33.1197 179.207L33.1186 179.201L32.1302 179.352ZM31.9036 177.796L32.895 177.666L32.8934 177.654L32.8914 177.641L31.9036 177.796ZM31.7221 176.486L30.7305 176.615L30.7306 176.616L31.7221 176.486ZM31.5523 175.16L32.5443 175.034L32.544 175.032L31.5523 175.16ZM31.2464 172.525L32.2412 172.422L32.2405 172.416L31.2464 172.525ZM30.9518 169.399L29.9551 169.48L29.9555 169.485L30.9518 169.399ZM30.6799 165.625L31.678 165.562L31.6777 165.558L30.6799 165.625ZM30.5555 163.046L31.5547 163.007L31.5545 163.003L30.5555 163.046ZM30.4761 160.67L31.476 160.655L31.4742 160.53L31.4415 160.409L30.4761 160.67ZM30.4761 160.54L31.4415 160.801L31.5757 160.304L31.2495 159.906L30.4761 160.54ZM30.4761 160.511L31.2495 161.145L31.7585 160.524L31.2621 159.893L30.4761 160.511ZM30.4761 160.482L31.2621 161.101L31.7585 160.47L31.2495 159.849L30.4761 160.482ZM30.4761 160.454L31.2495 161.088L31.489 160.795L31.4755 160.418L30.4761 160.454ZM30.4534 159.503H31.4534V159.491L31.4531 159.479L30.4534 159.503ZM30.4421 154.159L29.4422 154.14L29.4422 154.146L30.4421 154.159ZM30.5439 150.616L31.5431 150.654L31.5439 150.635V150.616H30.5439ZM30.5782 149.852L31.5772 149.897L31.5772 149.895L30.5782 149.852ZM30.8498 145.286L29.8525 145.213L30.8498 145.286ZM31.1783 141.555L30.1842 141.446L30.1833 141.455L31.1783 141.555ZM31.3824 139.697L32.3743 139.824L32.3758 139.813L32.377 139.801L31.3824 139.697ZM31.5409 138.372L32.533 138.498L32.5345 138.486L32.5358 138.473L31.5409 138.372ZM31.711 137.032L32.6996 137.183L32.701 137.174L32.7022 137.165L31.711 137.032ZM32.8324 129.83L33.8164 130.008L33.8167 130.007L32.8324 129.83ZM33.7048 125.495L34.6814 125.709L34.6834 125.7L33.7048 125.495ZM34.7133 121.13L35.6836 121.372L35.6856 121.364L35.6876 121.355L34.7133 121.13ZM35.2684 118.955L36.2306 119.227L36.2339 119.216L36.2369 119.204L35.2684 118.955ZM36.4807 114.634L37.4359 114.93L37.4388 114.921L37.4415 114.911L36.4807 114.634ZM37.1376 112.502L38.0853 112.821L38.088 112.813L38.0907 112.805L37.1376 112.502ZM38.5538 108.253L37.6109 107.92L37.6096 107.923L38.5538 108.253ZM39.3242 106.135L40.2574 106.494L40.2606 106.486L40.2635 106.478L39.3242 106.135ZM40.9445 101.972L41.8657 102.361L41.8699 102.352L41.8738 102.342L40.9445 101.972ZM44.6266 93.8052L45.5213 94.2518L45.5281 94.2382L45.5345 94.2244L44.6266 93.8052ZM45.6234 91.8175L46.5026 92.2939L46.508 92.284L46.5132 92.2739L45.6234 91.8175ZM47.7422 87.8707L48.6149 88.3589L48.6156 88.3577L47.7422 87.8707ZM381.43 413.473C381.186 413.144 380.925 412.834 380.648 412.543L379.2 413.924C379.419 414.152 379.627 414.4 379.823 414.665L381.43 413.473ZM380.712 412.618L380.701 412.603L379.125 413.835L379.136 413.849L380.712 412.618ZM380.644 412.537L324.54 352.342L323.077 353.706L379.181 413.901L380.644 412.537ZM324.54 352.342L323.09 350.786L321.627 352.15L323.077 353.706L324.54 352.342ZM323.09 350.786L317.573 344.866L316.11 346.23L321.627 352.15L323.09 350.786ZM317.573 344.866L316.191 343.382L314.727 344.746L316.11 346.23L317.573 344.866ZM316.191 343.383L308.328 334.942L306.864 336.305L314.727 344.746L316.191 343.383ZM308.327 334.941L306.175 332.636L304.713 334.001L306.865 336.306L308.327 334.941ZM306.176 332.637L301.723 327.855L300.259 329.218L304.712 334L306.176 332.637ZM301.724 327.856L299.446 325.407L297.982 326.769L300.259 329.218L301.724 327.856ZM299.445 325.406L277.965 302.373L276.502 303.737L297.983 326.77L299.445 325.406ZM277.965 302.373L265.649 289.165L264.187 290.529L276.502 303.737L277.965 302.373ZM265.649 289.164L263.995 287.393L262.533 288.757L264.187 290.529L265.649 289.164ZM263.995 287.393L227.707 248.459L226.244 249.822L262.532 288.757L263.995 287.393ZM227.851 249.623C228.409 248.609 228.957 247.594 229.494 246.563L227.72 245.639C227.192 246.653 226.652 247.655 226.099 248.658L227.851 249.623ZM229.499 246.553C229.713 246.13 229.928 245.71 230.143 245.288C230.358 244.867 230.574 244.445 230.791 244.018L229.007 243.114C228.792 243.537 228.578 243.957 228.362 244.379C228.147 244.8 227.931 245.222 227.715 245.649L229.499 246.553ZM230.811 243.974C230.823 243.949 230.837 243.92 230.865 243.866C230.888 243.819 230.924 243.748 230.958 243.673L229.134 242.853C229.122 242.88 229.107 242.909 229.079 242.964C229.056 243.011 229.02 243.082 228.986 243.157L230.811 243.974ZM230.937 243.717C231.192 243.216 231.439 242.693 231.67 242.217L229.871 241.343C229.627 241.846 229.398 242.331 229.154 242.81L230.937 243.717ZM231.656 242.244C231.803 241.965 231.938 241.684 232.061 241.402L230.228 240.602C230.125 240.838 230.011 241.076 229.885 241.315L231.656 242.244ZM232.038 241.452C232.224 241.082 232.411 240.695 232.588 240.306L230.767 239.479C230.603 239.839 230.428 240.201 230.252 240.552L232.038 241.452ZM232.582 240.319C232.755 239.951 232.928 239.57 233.098 239.197L231.276 238.371C231.106 238.747 230.939 239.114 230.773 239.466L232.582 240.319ZM233.092 239.21C233.892 237.509 234.645 235.797 235.374 234.074L233.532 233.295C232.81 235.001 232.068 236.688 231.282 238.358L233.092 239.21ZM235.372 234.079L235.44 233.92L233.602 233.132L233.534 233.29L235.372 234.079ZM235.445 233.908L236.023 232.511L234.175 231.747L233.597 233.144L235.445 233.908ZM236.018 232.521C236.385 231.661 236.74 230.788 237.083 229.916L235.221 229.185C234.885 230.042 234.537 230.897 234.179 231.736L236.018 232.521ZM236.959 230.141C237.109 229.936 237.173 229.702 237.175 229.489L235.175 229.469C235.177 229.308 235.224 229.126 235.345 228.96L236.959 230.141ZM237.103 229.85C237.456 228.969 237.811 228.065 238.145 227.159L236.268 226.469C235.944 227.349 235.597 228.231 235.246 229.107L237.103 229.85ZM237.992 227.432C238.043 227.367 238.079 227.306 238.103 227.258C238.127 227.209 238.144 227.167 238.155 227.137C238.166 227.106 238.173 227.081 238.177 227.066C238.181 227.051 238.185 227.039 238.185 227.038C238.186 227.033 238.184 227.041 238.182 227.05C238.179 227.06 238.173 227.08 238.164 227.105C238.155 227.131 238.14 227.168 238.118 227.212C238.096 227.256 238.063 227.313 238.015 227.375L236.443 226.138C236.392 226.203 236.356 226.264 236.332 226.313C236.307 226.361 236.291 226.403 236.28 226.434C236.269 226.464 236.262 226.489 236.257 226.504C236.253 226.519 236.25 226.532 236.25 226.533C236.249 226.537 236.25 226.53 236.253 226.521C236.256 226.511 236.262 226.49 236.271 226.465C236.28 226.44 236.295 226.402 236.317 226.358C236.339 226.314 236.372 226.257 236.42 226.196L237.992 227.432ZM238.164 227.11C238.585 225.995 238.996 224.878 239.397 223.729L237.508 223.071C237.115 224.198 236.71 225.299 236.293 226.403L238.164 227.11ZM239.383 223.766C239.493 223.486 239.59 223.209 239.679 222.953L237.792 222.292C237.7 222.554 237.615 222.796 237.521 223.035L239.383 223.766ZM239.682 222.945C240.056 221.848 240.432 220.735 240.796 219.62L238.895 218.999C238.535 220.102 238.162 221.207 237.789 222.299L239.682 222.945ZM240.796 219.621C241.172 218.476 241.537 217.316 241.89 216.158L239.977 215.575C239.627 216.722 239.267 217.867 238.896 218.997L240.796 219.621ZM241.89 216.158C242.242 215.004 242.595 213.831 242.926 212.67L241.003 212.121C240.677 213.265 240.328 214.425 239.977 215.575L241.89 216.158ZM242.927 212.667C243.553 210.453 244.141 208.234 244.691 206.009L242.75 205.529C242.205 207.732 241.622 209.93 241.002 212.123L242.927 212.667ZM244.702 205.963C244.721 205.864 244.745 205.767 244.772 205.672L242.85 205.118C242.807 205.269 242.77 205.421 242.739 205.576L244.702 205.963ZM244.784 205.628C245.068 204.443 245.34 203.273 245.613 202.09L243.664 201.641C243.392 202.821 243.121 203.985 242.839 205.162L244.784 205.628ZM245.614 202.083C245.786 201.313 245.945 200.559 246.104 199.793L244.146 199.387C243.988 200.147 243.831 200.891 243.662 201.648L245.614 202.083ZM246.105 199.792C246.217 199.247 246.333 198.69 246.437 198.131L244.471 197.765C244.371 198.301 244.26 198.838 244.146 199.387L246.105 199.792ZM246.421 198.202C246.486 197.955 246.534 197.684 246.568 197.52L244.611 197.109C244.555 197.376 244.535 197.509 244.487 197.694L246.421 198.202ZM246.57 197.511C246.719 196.769 246.856 196.043 246.992 195.307L245.026 194.942C244.89 195.675 244.755 196.39 244.609 197.117L246.57 197.511ZM246.99 195.317C247.003 195.253 247.015 195.187 247.026 195.127C247.038 195.064 247.048 195.009 247.058 194.958L245.096 194.571C245.083 194.635 245.071 194.702 245.06 194.762C245.048 194.825 245.038 194.881 245.028 194.932L246.99 195.317ZM247.061 194.945C247.333 193.455 247.596 191.95 247.835 190.457L245.86 190.141C245.624 191.616 245.364 193.106 245.093 194.584L247.061 194.945ZM247.834 190.463C247.96 189.706 248.074 188.949 248.187 188.201L246.21 187.903C246.096 188.653 245.984 189.395 245.861 190.135L247.834 190.463ZM248.188 188.194C248.403 186.698 248.62 185.189 248.803 183.678L246.817 183.438C246.638 184.923 246.424 186.41 246.209 187.91L248.188 188.194ZM248.802 183.686C248.894 182.971 248.974 182.257 249.053 181.552L247.066 181.329C246.986 182.036 246.908 182.734 246.818 183.431L248.802 183.686ZM249.052 181.564C249.132 180.922 249.201 180.279 249.269 179.663L247.281 179.444C247.212 180.067 247.145 180.692 247.067 181.317L249.052 181.564ZM249.269 179.665C249.36 178.85 249.44 178.049 249.509 177.232L247.516 177.064C247.449 177.86 247.371 178.643 247.281 179.442L249.269 179.665ZM249.509 177.24C249.805 174.041 250.021 170.855 250.158 167.655L248.16 167.57C248.024 170.736 247.81 173.889 247.517 177.056L249.509 177.24ZM250.158 167.66C250.203 166.702 250.237 165.746 250.271 164.781L248.272 164.711C248.239 165.676 248.205 166.621 248.16 167.565L250.158 167.66ZM250.271 164.777C250.306 163.661 250.328 162.559 250.34 161.443L248.34 161.423C248.329 162.525 248.306 163.613 248.272 164.715L250.271 164.777ZM250.34 161.445C250.351 160.524 250.363 159.582 250.363 158.653H248.363C248.363 159.568 248.351 160.498 248.34 161.421L250.34 161.445ZM250.363 158.653C250.363 155.859 250.306 153.08 250.192 150.287L248.194 150.368C248.306 153.135 248.363 155.887 248.363 158.653H250.363ZM250.192 150.287C250.01 145.814 249.679 141.36 249.201 136.925L247.213 137.139C247.686 141.53 248.013 145.939 248.194 150.368L250.192 150.287ZM249.201 136.925C245.123 99.0264 230.45 64.2218 207.822 38.8873L206.33 40.2196C228.646 65.2042 243.173 99.6019 247.213 137.139L249.201 136.925ZM207.822 38.8873C185.189 13.5476 156.09 -0.639932 125.831 -0.993241L125.807 1.00662C155.432 1.35251 184.019 15.24 206.33 40.2196L207.822 38.8873ZM125.831 -0.993241C95.5704 -1.34656 66.269 12.1598 43.2713 36.9696L44.7381 38.3292C67.4036 13.8778 96.1839 0.660741 125.807 1.00662L125.831 -0.993241ZM43.2713 36.9696C20.2788 61.7739 5.10542 96.2322 0.479953 134.03L2.46514 134.273C7.04636 96.8367 22.0675 62.7862 44.7381 38.3292L43.2713 36.9696ZM0.479555 134.033C0.366373 134.984 0.252325 135.955 0.149558 136.927L2.13848 137.137C2.23975 136.179 2.35245 135.22 2.46554 134.269L0.479555 134.033ZM0.149808 136.925C-0.225848 140.4 -0.506756 143.889 -0.692948 147.393L1.30423 147.499C1.4885 144.032 1.7665 140.578 2.13822 137.14L0.149808 136.925ZM-0.692652 147.388C-0.749501 148.36 -0.795243 149.319 -0.829547 150.292L1.16921 150.362C1.20293 149.406 1.24792 148.463 1.30394 147.505L-0.692652 147.388ZM-0.829323 150.286C-1.83849 174.83 1.63764 199.342 9.33107 221.902L11.224 221.257C3.61287 198.938 0.169656 174.673 1.16899 150.368L-0.829323 150.286ZM9.33107 221.902C17.0244 244.462 28.73 264.469 43.5445 280.345L45.0067 278.981C30.4034 263.331 18.8353 243.576 11.224 221.257L9.33107 221.902ZM43.5444 280.345C46.305 283.304 49.1353 286.09 52.0353 288.703L53.374 287.217C50.5186 284.644 47.7294 281.899 45.0068 278.981L43.5444 280.345ZM51.9187 288.578C51.9454 288.612 51.9739 288.644 52.0041 288.674C52.0342 288.704 52.0636 288.73 52.0908 288.751C52.1177 288.773 52.141 288.789 52.1575 288.8C52.1656 288.806 52.1724 288.81 52.1769 288.813C52.1811 288.816 52.1848 288.818 52.185 288.818C52.1862 288.819 52.1839 288.817 52.1812 288.816C52.1781 288.814 52.1727 288.81 52.166 288.806C52.1524 288.796 52.1318 288.782 52.1078 288.763C52.0834 288.743 52.0568 288.72 52.0295 288.693C52.0022 288.666 51.9765 288.637 51.9526 288.607L53.5246 287.37C53.4979 287.336 53.4694 287.304 53.4392 287.275C53.4091 287.245 53.3797 287.219 53.3525 287.197C53.3256 287.176 53.3023 287.16 53.2858 287.148C53.2777 287.143 53.2709 287.139 53.2664 287.136C53.2622 287.133 53.2585 287.131 53.2583 287.13C53.2571 287.13 53.2594 287.131 53.2621 287.133C53.2652 287.135 53.2706 287.138 53.2773 287.143C53.2909 287.152 53.3115 287.167 53.3355 287.186C53.3599 287.205 53.3865 287.228 53.4138 287.255C53.4411 287.282 53.4668 287.311 53.4907 287.342L51.9187 288.578ZM52.0707 288.733C53.0379 289.601 54.0066 290.456 54.9881 291.297L56.29 289.779C55.3227 288.95 54.3656 288.105 53.4066 287.244L52.0707 288.733ZM54.998 291.306C56.5572 292.608 58.1317 293.885 59.7201 295.105L60.9386 293.519C59.3776 292.32 57.8249 291.061 56.2801 289.771L54.998 291.306ZM59.7603 295.134C59.804 295.165 59.8509 295.2 59.9157 295.248C59.9749 295.293 60.0524 295.351 60.1326 295.407L61.274 293.765C61.2298 293.734 61.1827 293.699 61.1171 293.649C61.0573 293.605 60.9795 293.546 60.8984 293.49L59.7603 295.134ZM60.0968 295.381C61.469 296.428 62.8508 297.429 64.229 298.4L65.3804 296.764C64.017 295.804 62.6567 294.818 61.3098 293.791L60.0968 295.381ZM64.8047 298.582H64.8158V296.582H64.8047V298.582ZM64.2429 298.402C69.3896 301.999 74.7335 305.127 80.2342 307.76L81.0979 305.956C75.6985 303.371 70.4487 300.299 65.3887 296.762L64.2429 298.402ZM80.2346 307.76C96.3733 315.48 113.597 318.919 130.838 317.853L130.715 315.857C113.826 316.901 96.9409 313.535 81.0976 305.956L80.2346 307.76ZM130.777 317.855H130.81V315.855H130.777V317.855ZM130.872 317.853C150.997 316.615 170.573 309.243 187.951 296.384L186.761 294.776C169.67 307.423 150.459 314.644 130.749 315.857L130.872 317.853ZM187.949 296.385C190.474 294.525 192.965 292.535 195.4 290.413L194.086 288.906C191.694 290.99 189.246 292.947 186.763 294.775L187.949 296.385ZM195.397 290.416C195.999 289.896 196.617 289.357 197.215 288.817L195.873 287.333C195.293 287.859 194.688 288.386 194.089 288.903L195.397 290.416ZM197.211 288.821C197.945 288.164 198.678 287.479 199.402 286.804L198.037 285.342C197.31 286.02 196.594 286.69 195.878 287.33L197.211 288.821ZM198.72 287.073C198.774 287.073 198.83 287.069 198.888 287.059C198.946 287.049 199.003 287.034 199.059 287.014C199.114 286.995 199.165 286.971 199.212 286.945C199.258 286.919 199.298 286.892 199.333 286.866C199.367 286.84 199.396 286.814 199.419 286.792C199.442 286.77 199.461 286.75 199.475 286.734C199.489 286.719 199.5 286.705 199.506 286.698C199.509 286.693 199.512 286.69 199.514 286.688C199.515 286.687 199.515 286.686 199.516 286.685C199.516 286.685 199.517 286.684 199.517 286.684C199.517 286.684 199.516 286.685 199.515 286.687C199.514 286.688 199.511 286.691 199.508 286.695C199.502 286.702 199.492 286.714 199.479 286.729C199.466 286.744 199.448 286.763 199.426 286.784C199.403 286.806 199.376 286.83 199.342 286.856C199.308 286.882 199.269 286.908 199.224 286.933C199.178 286.959 199.128 286.982 199.074 287.001C199.02 287.021 198.964 287.035 198.907 287.045C198.85 287.054 198.795 287.059 198.742 287.059V285.059C198.688 285.059 198.632 285.063 198.574 285.073C198.516 285.082 198.458 285.097 198.403 285.117C198.348 285.137 198.297 285.16 198.25 285.186C198.204 285.212 198.164 285.239 198.129 285.266C198.095 285.292 198.066 285.317 198.043 285.34C198.02 285.362 198.001 285.382 197.987 285.397C197.973 285.413 197.962 285.426 197.956 285.434C197.953 285.438 197.95 285.441 197.948 285.443C197.947 285.445 197.947 285.445 197.946 285.446C197.946 285.447 197.945 285.447 197.945 285.447C197.945 285.448 197.946 285.446 197.947 285.445C197.948 285.443 197.951 285.44 197.954 285.437C197.959 285.43 197.969 285.417 197.983 285.403C197.996 285.388 198.014 285.369 198.036 285.347C198.059 285.326 198.086 285.301 198.12 285.276C198.154 285.25 198.193 285.223 198.238 285.198C198.284 285.173 198.334 285.15 198.388 285.13C198.442 285.111 198.498 285.096 198.555 285.087C198.612 285.077 198.667 285.073 198.72 285.073V287.073ZM199.472 286.742C199.496 286.717 199.519 286.695 199.542 286.677L198.282 285.124C198.187 285.201 198.097 285.285 198.013 285.375L199.472 286.742ZM199.611 286.616C200.098 286.14 200.584 285.677 201.069 285.207L199.678 283.77C199.212 284.222 198.701 284.709 198.214 285.184L199.611 286.616ZM201.053 285.223C201.175 285.11 201.321 284.975 201.469 284.821L200.026 283.436C199.925 283.541 199.822 283.636 199.695 283.754L201.053 285.223ZM201.41 284.877C201.502 284.796 201.581 284.706 201.65 284.612L200.027 283.443C200.04 283.424 200.059 283.402 200.085 283.379L201.41 284.877ZM201.513 284.765C201.8 284.503 202.143 284.146 202.371 283.925L200.981 282.487C200.644 282.814 200.443 283.034 200.163 283.29L201.513 284.765ZM202.371 283.926C202.666 283.641 202.964 283.326 203.228 283.058L201.802 281.655C201.499 281.963 201.253 282.225 200.982 282.487L202.371 283.926ZM203.141 283.136C203.234 283.062 203.32 282.98 203.398 282.892L201.904 281.562C201.897 281.57 201.892 281.575 201.889 281.577L203.141 283.136ZM203.373 282.918C203.527 282.757 203.682 282.599 203.841 282.437C203.999 282.275 204.162 282.109 204.325 281.939L202.88 280.556C202.726 280.717 202.571 280.875 202.412 281.038C202.254 281.199 202.092 281.365 201.929 281.535L203.373 282.918ZM204.312 281.952C204.656 281.605 204.987 281.244 205.289 280.917L203.819 279.561C203.51 279.896 203.206 280.227 202.892 280.543L204.312 281.952ZM205.276 280.931C205.601 280.591 205.913 280.254 206.231 279.907L204.758 278.555C204.441 278.899 204.141 279.224 203.832 279.547L205.276 280.931ZM206.222 279.917C206.494 279.629 206.792 279.311 207.081 278.975L205.563 277.672C205.308 277.969 205.039 278.256 204.767 278.545L206.222 279.917ZM207.013 279.046C207.137 278.928 207.296 278.737 207.326 278.704L205.839 277.366C205.687 277.535 205.687 277.546 205.63 277.601L207.013 279.046ZM207.356 278.668C207.354 278.671 207.349 278.677 207.34 278.684L206.05 277.156C205.961 277.231 205.88 277.314 205.808 277.402L207.356 278.668ZM207.429 278.6C207.816 278.182 208.189 277.752 208.55 277.337L207.039 276.026C206.675 276.445 206.323 276.851 205.962 277.24L207.429 278.6ZM208.538 277.35C208.596 277.286 208.649 277.223 208.69 277.174C208.734 277.122 208.766 277.084 208.799 277.047L207.311 275.71C207.254 275.774 207.201 275.837 207.16 275.886C207.116 275.938 207.084 275.976 207.051 276.012L208.538 277.35ZM208.807 277.037C209.361 276.406 209.927 275.76 210.482 275.083L208.936 273.814C208.404 274.462 207.86 275.084 207.303 275.72L208.807 277.037ZM210.466 275.102C210.595 274.953 210.725 274.802 210.851 274.656L209.338 273.348C209.215 273.49 209.073 273.656 208.952 273.795L210.466 275.102ZM210.851 274.656C210.921 274.574 210.988 274.494 211.047 274.423C211.107 274.349 211.16 274.286 211.214 274.224L209.7 272.916C209.63 272.998 209.563 273.078 209.505 273.149C209.444 273.222 209.392 273.286 209.338 273.348L210.851 274.656ZM211.242 274.189C211.309 274.104 211.381 274.019 211.465 273.92C211.545 273.825 211.638 273.714 211.73 273.598L210.158 272.361C210.091 272.446 210.02 272.53 209.937 272.629C209.856 272.724 209.763 272.835 209.671 272.951L211.242 274.189ZM211.712 273.619C212.126 273.123 212.538 272.6 212.934 272.11L211.379 270.852C210.959 271.371 210.578 271.856 210.176 272.339L211.712 273.619ZM211.423 272.162L212.76 273.602L214.226 272.242L212.889 270.801L211.423 272.162ZM212.764 273.607L213.252 274.125L214.709 272.755L214.222 272.237L212.764 273.607ZM213.981 274.44H213.992V272.44H213.981V274.44ZM213.23 274.089L213.378 274.261L214.9 272.965L214.753 272.792L213.23 274.089ZM213.413 274.301L213.946 274.863L215.397 273.487L214.865 272.925L213.413 274.301ZM213.939 274.856L221.847 283.355L223.312 281.992L215.404 273.494L213.939 274.856ZM221.84 283.346L222.01 283.533L223.49 282.188L223.319 282.001L221.84 283.346ZM222.059 283.584L222.195 283.713L223.576 282.267L223.44 282.138L222.059 283.584ZM222.152 283.67L223.047 284.635L224.514 283.275L223.619 282.31L222.152 283.67ZM223.047 284.635L224.837 286.566L226.304 285.206L224.514 283.275L223.047 284.635ZM224.84 286.568L226.63 288.484L228.091 287.119L226.301 285.203L224.84 286.568ZM226.636 288.491L226.897 288.765L228.346 287.386L228.085 287.112L226.636 288.491ZM226.89 288.757L235.217 297.688L236.68 296.324L228.353 287.393L226.89 288.757ZM235.217 297.688L236.373 298.927L237.835 297.562L236.68 296.324L235.217 297.688ZM236.373 298.926L244.405 307.54L245.868 306.176L237.835 297.562L236.373 298.926ZM244.405 307.54L285.985 352.15L287.448 350.787L245.868 306.177L244.405 307.54ZM285.985 352.15L287.435 353.706L288.898 352.342L287.448 350.786L285.985 352.15ZM287.435 353.706L344.343 414.751L345.806 413.387L288.898 352.342L287.435 353.706ZM344.343 414.751L358.935 430.408L360.398 429.045L345.806 413.387L344.343 414.751ZM358.935 430.409L364.362 436.228L365.825 434.864L360.398 429.045L358.935 430.409ZM364.361 436.227C365.603 437.563 367.055 438.59 368.639 439.234L369.392 437.381C368.102 436.857 366.888 436.007 365.826 434.865L364.361 436.227ZM368.639 439.234C370.225 439.878 371.904 440.122 373.577 439.943L373.364 437.954C372.029 438.097 370.681 437.904 369.392 437.381L368.639 439.234ZM373.577 439.943C375.248 439.765 376.862 439.17 378.328 438.208L377.23 436.536C376.014 437.335 374.7 437.812 373.364 437.954L373.577 439.943ZM378.328 438.208C379.792 437.246 381.076 435.938 382.117 434.37L380.45 433.264C379.544 434.629 378.447 435.737 377.23 436.536L378.328 438.208ZM382.114 434.374C382.988 433.07 383.676 431.596 384.155 430.017L382.241 429.436C381.816 430.839 381.209 432.131 380.453 433.261L382.114 434.374ZM384.153 430.024C385.023 427.229 385.227 424.179 384.745 421.246L382.772 421.57C383.204 424.202 383.019 426.937 382.243 429.429L384.153 430.024ZM384.745 421.246C384.264 418.313 383.113 415.599 381.41 413.448L379.842 414.69C381.312 416.547 382.339 418.936 382.772 421.57L384.745 421.246ZM53.2773 80.7171C64.5473 63.7373 79.341 51.1943 95.9262 44.496L95.1772 42.6415C78.1687 49.5108 63.073 62.3418 51.6109 79.6111L53.2773 80.7171ZM95.9262 44.496C112.505 37.8 130.225 37.2055 147.053 42.7761L147.682 40.8775C130.399 35.1565 112.192 35.7697 95.1772 42.6415L95.9262 44.496ZM147.053 42.7761C163.887 48.3487 179.176 59.8755 191.132 76.0687L192.74 74.8808C180.572 58.4001 164.958 46.5965 147.682 40.8775L147.053 42.7761ZM191.132 76.0687C203.088 92.2629 211.212 112.449 214.544 134.302L216.521 134.001C213.145 111.858 204.908 91.3605 192.74 74.8808L191.132 76.0687ZM214.544 134.302C214.69 135.261 214.825 136.204 214.949 137.16L216.932 136.904C216.807 135.93 216.669 134.972 216.521 134.001L214.544 134.302ZM214.949 137.166C215.411 140.584 215.748 144.045 215.951 147.505L217.947 147.388C217.742 143.876 217.399 140.365 216.932 136.898L214.949 137.166ZM215.951 147.505C216.007 148.473 216.063 149.411 216.097 150.362L218.096 150.292C218.061 149.313 218.004 148.35 217.947 147.388L215.951 147.505ZM216.097 150.374C216.198 152.518 216.243 154.677 216.243 156.824H218.243C218.243 154.649 218.198 152.458 218.095 150.28L216.097 150.374ZM216.243 156.824C216.25 169.844 214.553 182.772 211.225 195.079L213.156 195.602C216.531 183.12 218.25 170.016 218.243 156.823L216.243 156.824ZM211.19 195.34V195.355H213.19V195.34H211.19ZM211.225 195.095C207.505 208.894 201.796 221.68 194.398 232.8L196.063 233.907C203.589 222.596 209.384 209.609 213.156 195.615L211.225 195.095ZM194.406 232.787C194.225 233.049 194.096 233.252 193.938 233.466L195.548 234.653C195.73 234.406 195.918 234.118 196.054 233.92L194.406 232.787ZM193.91 233.505C192.43 235.729 190.871 237.868 189.266 239.909L190.838 241.145C192.474 239.066 194.064 236.884 195.575 234.613L193.91 233.505ZM189.259 239.918C189.236 239.949 189.217 239.976 189.205 239.995C189.192 240.015 189.182 240.033 189.175 240.045C189.168 240.058 189.162 240.069 189.158 240.076C189.154 240.083 189.151 240.089 189.15 240.091C189.148 240.094 189.149 240.093 189.15 240.092C189.151 240.09 189.154 240.084 189.158 240.076C189.162 240.069 189.17 240.056 189.18 240.04C189.19 240.025 189.205 240.002 189.226 239.974L190.811 241.195C190.835 241.163 190.853 241.136 190.866 241.116C190.879 241.096 190.889 241.079 190.896 241.066C190.903 241.054 190.909 241.043 190.913 241.036C190.917 241.029 190.92 241.022 190.921 241.02C190.923 241.017 190.922 241.018 190.921 241.019C190.92 241.021 190.917 241.027 190.913 241.034C190.909 241.042 190.901 241.055 190.892 241.07C190.882 241.085 190.866 241.109 190.845 241.136L189.259 239.918ZM189.233 239.966C188.675 240.675 188.121 241.379 187.57 242.023L189.09 243.323C189.672 242.642 190.252 241.905 190.804 241.203L189.233 239.966ZM187.553 242.043C186.412 243.452 185.249 244.789 184.062 246.07L185.529 247.429C186.745 246.117 187.937 244.746 189.107 243.303L187.553 242.043ZM184.052 246.081C182.27 248.061 180.445 249.917 178.576 251.648L179.935 253.115C181.85 251.341 183.718 249.442 185.539 247.418L184.052 246.081ZM178.574 251.649C177.946 252.234 177.316 252.806 176.675 253.378L178.006 254.871C178.657 254.291 179.296 253.709 179.937 253.114L178.574 251.649ZM176.668 253.384C176.049 253.947 175.416 254.483 174.768 255.032L176.061 256.558C176.705 256.013 177.364 255.454 178.013 254.865L176.668 253.384ZM174.768 255.032C173.491 256.115 172.192 257.154 170.883 258.135L172.083 259.736C173.426 258.729 174.755 257.665 176.061 256.558L174.768 255.032ZM170.875 258.142C170.232 258.635 169.565 259.116 168.898 259.59L170.058 261.22C170.728 260.742 171.42 260.244 172.092 259.729L170.875 258.142ZM168.887 259.598C168.237 260.074 167.573 260.525 166.901 260.966L167.999 262.638C168.687 262.186 169.382 261.715 170.069 261.212L168.887 259.598ZM166.889 260.974C166.217 261.43 165.548 261.869 164.869 262.294L165.93 263.989C166.633 263.549 167.324 263.096 168.011 262.629L166.889 260.974ZM164.86 262.299C163.508 263.166 162.146 263.975 160.764 264.726L161.719 266.483C163.146 265.707 164.549 264.874 165.939 263.983L164.86 262.299ZM160.743 264.737C160.059 265.13 159.375 265.495 158.693 265.831L159.576 267.625C160.298 267.27 161.019 266.885 161.739 266.472L160.743 264.737ZM158.671 265.841C158.215 266.079 157.816 266.293 157.405 266.481L158.235 268.3C158.707 268.085 159.169 267.838 159.597 267.615L158.671 265.841ZM157.313 266.528C157.185 266.604 157.054 266.667 156.923 266.719L157.652 268.581C157.884 268.49 158.109 268.38 158.326 268.253L157.313 266.528ZM156.809 266.772C156.598 266.887 156.39 266.987 156.183 267.075L156.964 268.916C157.233 268.802 157.501 268.673 157.766 268.528L156.809 266.772ZM156.074 267.129C156.038 267.15 156.002 267.167 155.968 267.181L156.704 269.041C156.832 268.99 156.955 268.93 157.073 268.862L156.074 267.129ZM155.887 267.217C155.422 267.451 154.965 267.659 154.477 267.871L155.272 269.705C155.781 269.485 156.275 269.261 156.785 269.004L155.887 267.217ZM154.453 267.881C153.76 268.203 153.063 268.498 152.352 268.781L153.091 270.639C153.83 270.346 154.561 270.036 155.295 269.695L154.453 267.881ZM152.337 268.787C151.618 269.087 150.922 269.367 150.221 269.618L150.895 271.501C151.644 271.233 152.376 270.938 153.107 270.633L152.337 268.787ZM150.188 269.63C149.487 269.909 148.769 270.162 148.051 270.404L148.691 272.299C149.423 272.052 150.178 271.787 150.927 271.489L150.188 269.63ZM148.039 270.409C147.309 270.666 146.603 270.904 145.892 271.112L146.454 273.032C147.216 272.808 147.96 272.557 148.703 272.295L148.039 270.409ZM145.858 271.123C145.097 271.375 144.334 271.601 143.554 271.813L144.079 273.743C144.886 273.523 145.685 273.287 146.488 273.021L145.858 271.123ZM143.536 271.818C142.867 272.013 142.207 272.181 141.531 272.336L141.978 274.286C142.684 274.124 143.384 273.946 144.097 273.738L143.536 271.818ZM141.496 272.345C140.875 272.511 140.241 272.65 139.588 272.796L140.024 274.748C140.663 274.605 141.343 274.456 142.013 274.277L141.496 272.345ZM139.589 272.796C138.692 272.995 137.802 273.179 136.906 273.334L137.246 275.305C138.184 275.143 139.107 274.952 140.023 274.748L139.589 272.796ZM136.877 273.339C136.393 273.437 135.936 273.518 135.477 273.571L135.706 275.557C136.243 275.495 136.761 275.403 137.274 275.299L136.877 273.339ZM135.395 273.584C135.212 273.62 135.036 273.645 134.828 273.675L135.109 275.655C135.309 275.627 135.541 275.594 135.788 275.544L135.395 273.584ZM134.79 273.681C134.183 273.791 133.572 273.875 132.961 273.945L133.191 275.932C133.827 275.859 134.484 275.769 135.147 275.649L134.79 273.681ZM132.992 273.942C132.88 273.952 132.775 273.966 132.696 273.976C132.609 273.988 132.553 273.995 132.499 274L132.679 275.992C132.784 275.983 132.886 275.969 132.961 275.959C133.043 275.948 133.103 275.94 133.161 275.935L132.992 273.942ZM132.465 274.004C131.786 274.089 131.095 274.16 130.401 274.232L130.608 276.221C131.296 276.15 132.01 276.077 132.713 275.988L132.465 274.004ZM130.417 274.23C128.952 274.358 127.499 274.444 126.034 274.486L126.092 276.486C127.596 276.442 129.088 276.354 130.591 276.223L130.417 274.23ZM126.044 274.486C125.295 274.501 124.545 274.515 123.809 274.515V276.515C124.567 276.515 125.336 276.5 126.083 276.486L126.044 274.486ZM123.809 274.515C123.074 274.515 122.339 274.501 121.604 274.472L121.527 276.471C122.287 276.5 123.048 276.515 123.809 276.515V274.515ZM121.565 275.472C120.565 275.471 120.565 275.47 120.565 275.47C120.565 275.47 120.565 275.469 120.565 275.469C120.565 275.469 120.565 275.468 120.565 275.468C120.565 275.467 120.565 275.466 120.565 275.464C120.565 275.462 120.565 275.46 120.565 275.458C120.566 275.453 120.566 275.449 120.566 275.444C120.566 275.434 120.567 275.423 120.567 275.411C120.569 275.388 120.571 275.356 120.578 275.317C120.583 275.281 120.594 275.223 120.618 275.155C120.639 275.092 120.684 274.978 120.779 274.858C120.879 274.73 121.054 274.575 121.316 274.509C121.578 274.442 121.804 274.495 121.951 274.557C122.089 274.615 122.182 274.692 122.23 274.735C122.282 274.783 122.319 274.826 122.34 274.853L120.768 276.09C120.791 276.119 120.924 276.294 121.171 276.398C121.319 276.461 121.546 276.514 121.809 276.447C122.072 276.38 122.248 276.225 122.349 276.096C122.517 275.883 122.548 275.664 122.553 275.63C122.559 275.59 122.562 275.557 122.564 275.533C122.564 275.521 122.565 275.51 122.565 275.5C122.565 275.495 122.565 275.49 122.565 275.485C122.565 275.483 122.565 275.481 122.565 275.479C122.565 275.478 122.565 275.476 122.565 275.475C122.565 275.475 122.565 275.474 122.565 275.474C122.565 275.474 122.565 275.473 122.565 275.473C122.565 275.473 122.565 275.472 121.565 275.472ZM120.768 274.853C120.749 274.877 120.787 274.826 120.833 274.779C120.85 274.762 121.104 274.482 121.543 274.482C121.981 274.482 122.235 274.762 122.252 274.779C122.298 274.826 122.336 274.877 122.317 274.853L120.745 276.09C120.746 276.09 120.748 276.093 120.75 276.095C120.752 276.098 120.756 276.103 120.761 276.11C120.769 276.119 120.792 276.147 120.824 276.18C120.845 276.201 121.102 276.482 121.543 276.482C121.984 276.482 122.241 276.201 122.261 276.18C122.293 276.147 122.316 276.119 122.324 276.11C122.329 276.103 122.333 276.098 122.336 276.095C122.338 276.093 122.34 276.09 122.34 276.09L120.768 274.853ZM120.733 274.869C120.807 274.771 120.911 274.672 121.05 274.597L122.003 276.355C122.146 276.278 122.253 276.176 122.33 276.074L120.733 274.869ZM121.05 274.597C121.191 274.52 121.353 274.478 121.52 274.478V276.478C121.692 276.478 121.857 276.434 122.003 276.355L121.05 274.597ZM121.52 274.478C121.687 274.478 121.849 274.52 121.99 274.597L121.037 276.355C121.183 276.434 121.349 276.478 121.52 276.478V274.478ZM121.99 274.597C122.129 274.672 122.233 274.771 122.307 274.869L120.711 276.074C120.787 276.176 120.895 276.278 121.037 276.355L121.99 274.597ZM121.144 274.54C121.342 274.463 121.563 274.463 121.76 274.54L121.031 276.403C121.302 276.509 121.602 276.509 121.873 276.403L121.144 274.54ZM121.396 274.472C120.898 274.472 120.394 274.445 119.892 274.403L119.727 276.396C120.266 276.441 120.828 276.472 121.396 276.472L121.396 274.472ZM119.847 274.4C119.455 274.386 119.095 274.372 118.739 274.333L118.523 276.322C118.961 276.369 119.393 276.385 119.772 276.399L119.847 274.4ZM118.685 274.329C118.171 274.301 117.656 274.259 117.141 274.204L116.926 276.192C117.477 276.252 118.027 276.296 118.577 276.326L118.685 274.329ZM117.034 274.198C116.914 274.198 116.896 274.183 116.609 274.158L116.439 276.151C116.492 276.156 116.814 276.198 117.034 276.198V274.198ZM116.554 274.155C116.535 274.155 116.515 274.152 116.494 274.148L116.078 276.104C116.215 276.133 116.354 276.15 116.494 276.154L116.554 274.155ZM116.391 274.132C115.843 274.073 115.303 274.017 114.774 273.947L114.512 275.93C115.071 276.004 115.641 276.063 116.181 276.12L116.391 274.132ZM114.748 273.944C114.468 273.914 114.214 273.888 113.973 273.85L113.659 275.825C113.963 275.874 114.275 275.905 114.538 275.933L114.748 273.944ZM113.954 273.847C113.138 273.734 112.323 273.606 111.52 273.464L111.173 275.434C112.001 275.58 112.84 275.711 113.678 275.828L113.954 273.847ZM111.5 273.461C110.59 273.32 109.687 273.151 108.8 272.942L108.341 274.889C109.289 275.113 110.244 275.29 111.193 275.437L111.5 273.461ZM108.736 272.93C108.345 272.864 107.96 272.772 107.535 272.67L107.068 274.615C107.482 274.714 107.935 274.823 108.405 274.902L108.736 272.93ZM107.505 272.663C106.966 272.551 106.427 272.425 105.887 272.285L105.385 274.221C105.956 274.369 106.527 274.503 107.098 274.621L107.505 272.663ZM105.878 272.283C105.297 272.138 104.741 271.999 104.189 271.834L103.616 273.75C104.22 273.931 104.82 274.08 105.395 274.224L105.878 272.283ZM104.171 271.829C103.698 271.697 103.241 271.573 102.794 271.434L102.202 273.344C102.684 273.494 103.178 273.628 103.634 273.755L104.171 271.829ZM102.744 271.42C102.553 271.371 102.354 271.309 102.147 271.239L101.512 273.136C101.735 273.21 101.989 273.292 102.252 273.358L102.744 271.42ZM102.119 271.23C100.945 270.875 99.7865 270.492 98.6418 270.068L97.9472 271.944C99.1365 272.384 100.334 272.78 101.54 273.145L102.119 271.23ZM98.6265 270.063C97.901 269.808 97.1771 269.539 96.466 269.256L95.7273 271.115C96.4663 271.408 97.2154 271.687 97.9625 271.949L98.6265 270.063ZM96.46 269.254C95.4809 268.872 94.5119 268.461 93.5412 268.021L92.7157 269.843C93.7161 270.296 94.7181 270.721 95.7333 271.117L96.46 269.254ZM93.5088 268.007C93.1494 267.859 92.7956 267.696 92.421 267.514L91.5468 269.313C91.9428 269.505 92.337 269.688 92.7481 269.857L93.5088 268.007ZM92.3645 267.489C92.016 267.345 91.6782 267.176 91.2772 266.981L90.4025 268.78C90.7716 268.959 91.1818 269.165 91.6033 269.338L92.3645 267.489ZM91.2514 266.969C90.9195 266.819 90.5832 266.654 90.2509 266.485L89.3438 268.268C89.6914 268.444 90.0578 268.625 90.4284 268.792L91.2514 266.969ZM90.2323 266.476C89.6808 266.209 89.1383 265.928 88.5811 265.639L87.66 267.414C88.2132 267.701 88.781 267.996 89.3625 268.277L90.2323 266.476ZM88.5793 265.638C87.4517 265.056 86.3467 264.446 85.2416 263.793L84.2245 265.515C85.3627 266.187 86.5009 266.816 87.6618 267.415L88.5793 265.638ZM85.2556 263.802C84.597 263.398 83.9945 263.043 83.3706 262.653L82.3117 264.35C82.934 264.739 83.6 265.133 84.2105 265.507L85.2556 263.802ZM83.3651 262.65C80.9387 261.157 78.5475 259.497 76.1916 257.67L74.9658 259.25C77.3762 261.12 79.8266 262.821 82.3171 264.353L83.3651 262.65ZM76.1828 257.663C75.6078 257.227 75.0308 256.762 74.4394 256.285L73.1836 257.841C73.7705 258.315 74.3713 258.8 74.9746 259.257L76.1828 257.663ZM74.4276 256.275C73.7092 255.713 73.0106 255.121 72.2942 254.514L71.0011 256.04C71.7121 256.642 72.4407 257.26 73.1954 257.851L74.4276 256.275ZM72.3047 254.523C71.9014 254.172 71.5264 253.849 71.1482 253.51L69.8126 254.999C70.205 255.351 70.6006 255.691 70.9906 256.031L72.3047 254.523ZM71.1445 253.507C70.4401 252.881 69.7446 252.239 69.0574 251.595L67.6891 253.053C68.3838 253.705 69.0935 254.36 69.8163 255.002L71.1445 253.507ZM69.0478 251.586C68.6956 251.264 68.342 250.927 67.9986 250.589L66.5953 252.014C66.954 252.367 67.3257 252.721 67.6988 253.062L69.0478 251.586ZM67.9903 250.581C66.7481 249.385 65.5259 248.131 64.3227 246.844L62.8619 248.21C64.0831 249.516 65.3304 250.797 66.6036 252.022L67.9903 250.581ZM64.3235 246.845C63.7508 246.231 63.1806 245.606 62.6231 244.968L61.1172 246.284C61.6927 246.943 62.2781 247.585 62.861 248.209L64.3235 246.845ZM62.6071 244.95C62.3797 244.702 62.1503 244.439 61.9109 244.163L60.4016 245.475C60.6379 245.747 60.8848 246.031 61.1332 246.302L62.6071 244.95ZM61.9155 244.169C61.6243 243.829 61.3814 243.56 61.1382 243.25L59.566 244.487C59.844 244.84 60.145 245.176 60.397 245.47L61.9155 244.169ZM61.0774 243.176C60.6941 242.744 60.3072 242.281 59.9278 241.813L58.374 243.072C58.765 243.555 59.172 244.042 59.5815 244.503L61.0774 243.176ZM59.9191 241.802C59.3268 241.092 58.7478 240.37 58.1926 239.636L56.5975 240.842C57.1753 241.606 57.7745 242.353 58.3827 243.083L59.9191 241.802ZM58.1752 239.613C57.5998 238.896 57.0444 238.148 56.4877 237.396L54.8808 238.587C55.4344 239.334 56.012 240.113 56.6149 240.865L58.1752 239.613ZM56.4819 237.389C55.9268 236.655 55.3923 235.904 54.8668 235.137L53.2163 236.266C53.7557 237.054 54.3088 237.831 54.8867 238.595L56.4819 237.389ZM54.856 235.121C54.3194 234.368 53.7938 233.6 53.2793 232.818L51.6085 233.918C52.1365 234.72 52.6761 235.508 53.2271 236.282L54.856 235.121ZM53.2706 232.805C52.7709 232.071 52.2802 231.306 51.8082 230.549L50.1111 231.607C50.5912 232.377 51.0972 233.167 51.6172 233.931L53.2706 232.805ZM51.8032 230.541C50.658 228.742 49.5653 226.91 48.5249 225.045L46.7782 226.019C47.8375 227.918 48.9501 229.783 50.1162 231.615L51.8032 230.541ZM48.5227 225.041C48.0422 224.188 47.5836 223.335 47.1353 222.466L45.3581 223.384C45.8165 224.272 46.2867 225.147 46.7804 226.023L48.5227 225.041ZM47.1246 222.446C46.6458 221.568 46.1881 220.675 45.7523 219.779L43.954 220.654C44.4017 221.574 44.8735 222.495 45.3687 223.404L47.1246 222.446ZM45.7433 219.761C45.2867 218.869 44.851 217.96 44.4249 217.034L42.6078 217.869C43.0425 218.815 43.4907 219.75 43.963 220.672L45.7433 219.761ZM44.4614 217.125C44.4191 217.002 44.3569 216.879 44.2714 216.765L42.6706 217.964C42.623 217.901 42.5915 217.837 42.5712 217.778L44.4614 217.125ZM44.378 216.944C43.5333 215.125 42.7246 213.297 41.9731 211.443L40.1196 212.195C40.8866 214.087 41.7093 215.946 42.5641 217.786L44.378 216.944ZM41.9712 211.439C41.1956 209.552 40.4649 207.647 39.7791 205.722L37.8951 206.393C38.5916 208.348 39.3337 210.283 40.1215 212.199L41.9712 211.439ZM39.7769 205.716C39.4292 204.76 39.0933 203.792 38.7803 202.825L36.8776 203.442C37.1991 204.434 37.543 205.425 37.8974 206.399L39.7769 205.716ZM38.7777 202.818C38.1249 200.857 37.5176 198.899 36.9557 196.912L35.0312 197.457C35.6022 199.475 36.2186 201.463 36.8802 203.449L38.7777 202.818ZM36.9529 196.903C36.6735 195.951 36.4156 194.996 36.1554 194.018L34.2226 194.532C34.4836 195.513 34.7469 196.488 35.0339 197.466L36.9529 196.903ZM36.1809 194.148C36.1635 194.011 36.131 193.875 36.0825 193.743L34.2049 194.432C34.2 194.419 34.198 194.408 34.1971 194.401L36.1809 194.148ZM36.111 193.834C35.5938 191.861 35.1221 189.876 34.7066 187.877L32.7485 188.285C33.1716 190.32 33.6513 192.338 34.1764 194.341L36.111 193.834ZM34.6581 187.715C34.6759 187.76 34.6862 187.798 34.6917 187.82C34.6945 187.831 34.6963 187.84 34.6971 187.843C34.6977 187.847 34.6981 187.849 34.6973 187.844C34.6967 187.842 34.6949 187.832 34.6927 187.822C34.6904 187.811 34.687 187.795 34.6825 187.777C34.6735 187.74 34.659 187.689 34.6356 187.629L32.7741 188.36C32.7564 188.315 32.7461 188.278 32.7406 188.255C32.7379 188.244 32.7361 188.236 32.7353 188.232C32.7346 188.229 32.7342 188.227 32.7351 188.232C32.7356 188.234 32.7375 188.244 32.7396 188.254C32.7419 188.265 32.7453 188.28 32.7498 188.299C32.7589 188.336 32.7734 188.387 32.7969 188.447L34.6581 187.715ZM34.6822 187.783C34.4685 186.796 34.2672 185.814 34.0889 184.822L32.1204 185.175C32.3044 186.199 32.5108 187.206 32.7275 188.206L34.6822 187.783ZM34.084 184.796C33.9059 183.934 33.7498 183.069 33.6039 182.185L31.6306 182.511C31.7796 183.414 31.9405 184.306 32.1253 185.201L34.084 184.796ZM33.603 182.18C33.4328 181.184 33.265 180.202 33.1196 179.207L31.1407 179.497C31.2901 180.519 31.462 181.524 31.6315 182.517L33.603 182.18ZM33.1186 179.201C33.0391 178.681 32.9615 178.173 32.895 177.666L30.9121 177.927C30.9818 178.457 31.0625 178.986 31.1417 179.503L33.1186 179.201ZM32.8914 177.641C32.8259 177.225 32.7712 176.794 32.7136 176.356L30.7306 176.616C30.7864 177.041 30.8452 177.504 30.9157 177.952L32.8914 177.641ZM32.7137 176.356C32.6575 175.926 32.6011 175.481 32.5443 175.034L30.5602 175.286C30.6169 175.732 30.6738 176.181 30.7305 176.615L32.7137 176.356ZM32.544 175.032C32.4317 174.162 32.3308 173.292 32.2412 172.422L30.2517 172.627C30.3431 173.514 30.446 174.401 30.5605 175.288L32.544 175.032ZM32.2405 172.416C32.1285 171.392 32.0389 170.365 31.9481 169.313L29.9555 169.485C30.0462 170.535 30.1375 171.583 30.2523 172.633L32.2405 172.416ZM31.9485 169.318C31.847 168.071 31.757 166.823 31.678 165.562L29.6819 165.687C29.7617 166.961 29.8526 168.221 29.9551 169.48L31.9485 169.318ZM31.6777 165.558C31.6221 164.724 31.5885 163.874 31.5547 163.007L29.5562 163.085C29.5899 163.948 29.6245 164.825 29.6822 165.691L31.6777 165.558ZM31.5545 163.003C31.5202 162.209 31.4871 161.431 31.476 160.655L29.4762 160.684C29.4878 161.493 29.5222 162.299 29.5564 163.09L31.5545 163.003ZM31.4415 160.409C31.4763 160.538 31.4763 160.672 31.4415 160.801L29.5107 160.279C29.4532 160.492 29.4532 160.718 29.5107 160.931L31.4415 160.409ZM31.2495 159.906C31.3256 159.999 31.3832 160.104 31.4206 160.216L29.5244 160.851C29.5634 160.968 29.6235 161.077 29.7027 161.174L31.2495 159.906ZM31.4206 160.216C31.4562 160.322 31.4713 160.427 31.4713 160.526H29.4713C29.4713 160.63 29.4872 160.74 29.5244 160.851L31.4206 160.216ZM31.4713 160.526C31.4713 160.623 31.4567 160.728 31.4206 160.836L29.5244 160.2C29.4866 160.312 29.4713 160.423 29.4713 160.526H31.4713ZM31.4206 160.836C31.3832 160.947 31.3256 161.052 31.2495 161.145L29.7027 159.877C29.6235 159.974 29.5634 160.083 29.5244 160.2L31.4206 160.836ZM31.2621 159.893C31.2456 159.872 31.2831 159.918 31.3164 159.971C31.3541 160.031 31.4676 160.222 31.4676 160.497C31.4676 160.772 31.3541 160.963 31.3164 161.023C31.2831 161.076 31.2456 161.122 31.2621 161.101L29.6901 159.864C29.6897 159.865 29.6876 159.867 29.6854 159.87C29.6831 159.873 29.679 159.878 29.6742 159.885C29.6662 159.895 29.6458 159.923 29.6231 159.959C29.5825 160.023 29.4676 160.218 29.4676 160.497C29.4676 160.776 29.5825 160.97 29.6231 161.035C29.6458 161.071 29.6662 161.098 29.6742 161.109C29.679 161.115 29.6831 161.121 29.6854 161.123C29.6876 161.126 29.6897 161.129 29.6901 161.13L31.2621 159.893ZM31.2495 159.849C31.3256 159.941 31.3832 160.046 31.4206 160.158L29.5244 160.794C29.5634 160.91 29.6235 161.02 29.7027 161.116L31.2495 159.849ZM31.4206 160.158C31.4562 160.264 31.4713 160.369 31.4713 160.468H29.4713C29.4713 160.572 29.4872 160.683 29.5244 160.794L31.4206 160.158ZM31.4713 160.468C31.4713 160.567 31.4562 160.672 31.4206 160.778L29.5244 160.142C29.4872 160.253 29.4713 160.364 29.4713 160.468H31.4713ZM31.4206 160.778C31.3851 160.884 31.3292 160.99 31.2495 161.088L29.7027 159.82C29.62 159.921 29.5616 160.031 29.5244 160.142L31.4206 160.778ZM31.4755 160.418C31.464 160.098 31.4534 159.799 31.4534 159.503H29.4534C29.4534 159.841 29.4655 160.176 29.4767 160.489L31.4755 160.418ZM31.4531 159.479C31.4307 158.551 31.4195 157.623 31.4195 156.694H29.4195C29.4195 157.639 29.4309 158.583 29.4537 159.527L31.4531 159.479ZM31.4195 156.694C31.4195 155.852 31.4306 155.023 31.442 154.172L29.4422 154.146C29.4308 154.994 29.4195 155.837 29.4195 156.694H31.4195ZM31.4419 154.178C31.4644 153.003 31.4982 151.829 31.5431 150.654L29.5446 150.577C29.4992 151.765 29.465 152.952 29.4423 154.14L31.4419 154.178ZM31.5439 150.616C31.5439 150.382 31.5626 150.221 31.5772 149.897L29.5792 149.807C29.5704 150.002 29.5439 150.33 29.5439 150.616H31.5439ZM31.5772 149.895C31.5884 149.634 31.5995 149.398 31.6112 149.132L29.6131 149.045C29.602 149.297 29.5901 149.552 29.5791 149.81L31.5772 149.895ZM31.724 147.199C31.7574 146.59 31.8017 145.979 31.8471 145.359L29.8525 145.213C29.8071 145.832 29.7616 146.459 29.727 147.089L31.724 147.199ZM31.8471 145.359C31.937 144.132 32.0495 142.888 32.1733 141.655L30.1833 141.455C30.0582 142.701 29.944 143.963 29.8525 145.213L31.8471 145.359ZM32.1723 141.665C32.2432 141.02 32.2963 140.433 32.3743 139.824L30.3906 139.57C30.3098 140.2 30.2495 140.852 30.1843 141.446L32.1723 141.665ZM32.377 139.801C32.421 139.382 32.4761 138.946 32.533 138.498L30.5489 138.246C30.4924 138.691 30.4345 139.148 30.3879 139.593L32.377 139.801ZM32.5358 138.473C32.5795 138.043 32.6341 137.613 32.6996 137.183L30.7225 136.882C30.6519 137.345 30.5931 137.808 30.5461 138.271L32.5358 138.473ZM32.7022 137.165C32.7818 136.571 32.8602 135.975 32.9493 135.379L30.9712 135.084C30.8794 135.698 30.7985 136.313 30.7199 136.9L32.7022 137.165ZM33.108 134.299C33.3217 132.869 33.5577 131.439 33.8164 130.008L31.8483 129.652C31.586 131.103 31.3467 132.553 31.13 134.004L33.108 134.299ZM33.8167 130.007C34.0744 128.568 34.3665 127.141 34.6814 125.709L32.7281 125.28C32.4091 126.729 32.1115 128.183 31.848 129.654L33.8167 130.007ZM34.6834 125.7C34.9862 124.26 35.3233 122.817 35.6836 121.372L33.7429 120.888C33.378 122.352 33.0351 123.819 32.7262 125.289L34.6834 125.7ZM35.6876 121.355C35.8545 120.633 36.032 119.929 36.2306 119.227L34.3062 118.683C34.0971 119.421 33.9117 120.158 33.739 120.905L35.6876 121.355ZM36.2369 119.204C36.6079 117.76 37.0001 116.336 37.4359 114.93L35.5256 114.338C35.0774 115.784 34.6763 117.241 34.2998 118.706L36.2369 119.204ZM37.4415 114.911C37.644 114.21 37.8544 113.506 38.0853 112.821L36.19 112.183C35.9452 112.909 35.7252 113.646 35.52 114.356L37.4415 114.911ZM38.0907 112.805C38.5411 111.388 39.014 109.971 39.4981 108.582L37.6096 107.923C37.1195 109.329 36.6408 110.764 36.1846 112.199L38.0907 112.805ZM39.4968 108.586C39.7467 107.878 39.9916 107.185 40.2574 106.494L38.3909 105.776C38.1135 106.497 37.8595 107.216 37.6109 107.92L39.4968 108.586ZM40.2635 106.478C40.7706 105.089 41.2968 103.709 41.8657 102.361L40.0233 101.583C39.4365 102.973 38.8978 104.387 38.3848 105.792L40.2635 106.478ZM41.8738 102.342C42.4207 100.965 43.014 99.6129 43.6232 98.2646L41.8007 97.4411C41.1862 98.8008 40.5786 100.185 40.0152 101.603L41.8738 102.342ZM43.6232 98.2646C44.2314 96.9187 44.8601 95.5768 45.5213 94.2518L43.7318 93.3587C43.056 94.7128 42.4162 96.079 41.8007 97.4411L43.6232 98.2646ZM45.5345 94.2244C45.8313 93.5816 46.1613 92.9237 46.5026 92.2939L44.7443 91.341C44.383 92.0076 44.0337 92.7037 43.7187 93.3861L45.5345 94.2244ZM46.5132 92.2739C47.187 90.9606 47.8949 89.646 48.6149 88.3589L46.8695 87.3825C46.139 88.6882 45.4196 90.024 44.7337 91.361L46.5132 92.2739ZM48.6156 88.3577C50.0646 85.7589 51.6257 83.2027 53.277 80.7176L51.6112 79.6107C49.9317 82.1382 48.3435 84.7387 46.8688 87.3837L48.6156 88.3577Z" fill="#040404" mask="url(#path-1-inside-1_4_64)"/>
<rect x="59.0889" y="129.423" width="130.066" height="89.5765" fill="#0074FC"/>
<rect x="76.1033" y="141.429" width="25.3326" height="40.6327" fill="white"/>
<path d="M124.5 38L203.741 115.571H45.2587L124.5 38Z" fill="#FF0000"/>
<ellipse cx="165.335" cy="172.748" rx="6.80579" ry="19.3141" fill="white"/>
<rect x="158.529" y="172.748" width="13.6116" height="46.2522" fill="white"/>
</svg>
