<svg width="189" height="161" viewBox="0 0 189 161" fill="none" xmlns="http://www.w3.org/2000/svg">
<path d="M122.621 4.57501L132.218 9.18784L132.295 17.6194L132.409 26.0889L135.965 23.9715L139.521 21.8542L144.377 24.0093C147.054 25.2193 150.036 26.5426 151.068 26.9585L152.865 27.7525V33.1593V38.5283L155.159 40.0786C175.004 53.3876 188.204 76.4519 188.012 100.802C187.86 122.315 176.189 140.086 159.442 148.518C155.083 150.711 151.565 151.996 146.404 153.319C134.742 156.231 124.189 155.248 102.051 149.123C88.5918 145.379 78.574 142.96 72.9535 142.014C53.4152 138.725 38.5417 140.54 24.5858 147.799C18.9652 150.711 16.7093 152.299 7.76226 159.596C6.27109 160.806 6.27109 160.806 7.22697 159.709C18.6976 146.703 29.7093 138.498 41.2181 134.414C54.9828 129.537 66.9507 129.802 90.6948 135.398C110.539 140.086 116.771 141.107 125.527 141.145C134.015 141.182 140.707 139.897 147.895 136.91L151.145 135.549L150.992 86.4337L150.839 37.3562L151.757 37.7721L152.674 38.2258L151.833 37.5831C151.03 37.0159 150.954 36.6757 150.954 33.2728V29.6052L145.945 27.45C143.192 26.2401 140.707 25.1814 140.401 25.068C139.942 24.9168 139.865 28.7735 139.865 50.8545V76.83L135.009 72.3307L130.115 67.8691L129.924 39.3223L129.733 10.7758L122.774 7.56201C118.454 5.5959 115.777 4.1213 115.739 3.78101C115.739 3.47853 115.471 3.70538 115.204 4.34814C114.745 5.29339 114.707 10.4355 114.898 35.6169L115.127 65.7896H106.104H97.0418V53.1231V40.4566L90.5418 43.6705L84.0417 46.8843V58.53V70.1755L80.1417 74.448C76.5476 78.4181 76.1652 78.6827 75.1329 78.4937C74.5211 78.3803 66.6446 78.2668 57.6211 78.2668H41.2564L42.4034 74.9395C46.6476 62.8782 55.9388 50.4384 66.5299 42.6496C69.9329 40.1541 74.9035 37.016 77.2741 35.8817L79.0329 35.012L79.1476 31.4579L79.2623 27.8659L85.074 25.1814L90.9242 22.4969V16.2205C90.9242 10.0953 90.9625 9.94405 91.8036 9.52814C98.1889 6.46553 112.259 0.0378099 112.604 0C112.871 0 117.383 2.07956 122.621 4.57501ZM137.915 79.817L147.895 88.9292V90.8575V92.7858L146.098 91.0844C145.065 90.1391 140.401 85.6776 135.736 81.1782C131.033 76.6788 127.057 72.9734 126.865 72.9734C126.712 72.9734 121.857 79.1743 116.121 86.774L105.645 100.575H100.292H94.9389L89.7771 95.3569C86.9477 92.5212 83.0093 88.5511 81.0593 86.5472L77.4652 82.9174L83.3152 76.7922L89.1271 70.7048H108.551H127.974L137.915 79.817ZM66.9505 89.9123C63.4329 93.6176 55.7093 101.709 49.8211 107.872L39.1534 119.102H19.5005C8.67992 119.102 -0.0759735 118.95 0.000497112 118.761C0.0769677 118.61 7.68579 110.519 16.9005 100.802L33.6858 83.1821H53.5299H73.4123L66.9505 89.9123ZM127.63 100.008V102.465H125.145H122.659V100.008V97.5499H125.145H127.63V100.008ZM135.659 100.008V102.465H132.983H130.307V100.008V97.5499H132.983H135.659V100.008ZM127.63 107.948V110.405H125.145H122.659V107.948V105.49H125.145H127.63V107.948ZM135.659 107.948V110.405H132.983H130.307V107.948V105.49H132.983H135.659V107.948ZM70.6593 110.594V113.052H67.9829H65.3064V110.594V108.137H67.9829H70.6593V110.594ZM78.3064 110.594V113.052H75.8211H73.3358V110.594V108.137H75.8211H78.3064V110.594ZM127.63 115.699V118.345H125.145H122.659V115.699V113.052H125.145H127.63V115.699ZM135.659 115.699V118.345H132.983H130.307V115.699V113.052H132.983H135.659V115.699ZM70.6593 118.345V120.992H67.9829H65.3064V118.345V115.699H67.9829H70.6593V118.345ZM78.3064 118.345V120.992H75.8211H73.3358V118.345V115.699H75.8211H78.3064V118.345Z" fill="#03008F"/>
</svg>
