<svg width="26" height="16" viewBox="0 0 26 16" fill="none" xmlns="http://www.w3.org/2000/svg">
<path d="M25 2H1C0.734784 2 0.48043 1.89464 0.292893 1.70711C0.105357 1.51957 0 1.26522 0 1C0 0.734784 0.105357 0.48043 0.292893 0.292893C0.48043 0.105357 0.734784 0 1 0H25C25.2652 0 25.5196 0.105357 25.7071 0.292893C25.8946 0.48043 26 0.734784 26 1C26 1.26522 25.8946 1.51957 25.7071 1.70711C25.5196 1.89464 25.2652 2 25 2Z" fill="#BA00AF"/>
<path d="M25 9H1C0.734784 9 0.48043 8.89464 0.292893 8.70711C0.105357 8.51957 0 8.26522 0 8C0 7.73478 0.105357 7.48043 0.292893 7.29289C0.48043 7.10536 0.734784 7 1 7H25C25.2652 7 25.5196 7.10536 25.7071 7.29289C25.8946 7.48043 26 7.73478 26 8C26 8.26522 25.8946 8.51957 25.7071 8.70711C25.5196 8.89464 25.2652 9 25 9Z" fill="#BA00AF"/>
<path d="M14.4231 16H0.576923C0.423914 16 0.277171 15.8946 0.168977 15.7071C0.0607828 15.5196 0 15.2652 0 15C0 14.7348 0.0607828 14.4804 0.168977 14.2929C0.277171 14.1054 0.423914 14 0.576923 14H14.4231C14.5761 14 14.7228 14.1054 14.831 14.2929C14.9392 14.4804 15 14.7348 15 15C15 15.2652 14.9392 15.5196 14.831 15.7071C14.7228 15.8946 14.5761 16 14.4231 16Z" fill="#BA00AF"/>
</svg>
